<?xml version="1.0" encoding="UTF-8" standalone="no"?>
<!-- Created with Inkscape (http://www.inkscape.org/) -->

<svg
   width="149.57373mm"
   height="48.294456mm"
   viewBox="0 0 149.57373 48.294455"
   version="1.1"
   id="svg1"
   xml:space="preserve"
   inkscape:version="1.4 (e7c3feb100, 2024-10-09)"
   sodipodi:docname="image.svg"
   xmlns:inkscape="http://www.inkscape.org/namespaces/inkscape"
   xmlns:sodipodi="http://sodipodi.sourceforge.net/DTD/sodipodi-0.dtd"
   xmlns="http://www.w3.org/2000/svg"
   xmlns:svg="http://www.w3.org/2000/svg"><sodipodi:namedview
     id="namedview1"
     pagecolor="#ffffff"
     bordercolor="#000000"
     borderopacity="0.25"
     inkscape:showpageshadow="2"
     inkscape:pageopacity="0.0"
     inkscape:pagecheckerboard="0"
     inkscape:deskcolor="#d1d1d1"
     inkscape:document-units="mm"
     inkscape:zoom="1.4574355"
     inkscape:cx="168.10349"
     inkscape:cy="128.9937"
     inkscape:window-width="1920"
     inkscape:window-height="1019"
     inkscape:window-x="0"
     inkscape:window-y="30"
     inkscape:window-maximized="1"
     inkscape:current-layer="layer1" /><defs
     id="defs1"><marker
       style="overflow:visible"
       id="ConcaveTriangle"
       refX="0"
       refY="0"
       orient="auto-start-reverse"
       inkscape:stockid="Concave triangle arrow"
       markerWidth="1"
       markerHeight="1"
       viewBox="0 0 1 1"
       inkscape:isstock="true"
       inkscape:collect="always"
       preserveAspectRatio="xMidYMid"><path
         transform="scale(0.7)"
         d="M -2,-4 9,0 -2,4 c 2,-2.33 2,-5.66 0,-8 z"
         style="fill:context-stroke;fill-rule:evenodd;stroke:none"
         id="path23" /></marker></defs><g
     inkscape:label="Laag 1"
     inkscape:groupmode="layer"
     id="layer1"
     transform="translate(-1.6193384,-3.2567258)"><g
       id="g3"
       transform="matrix(2.6453657,0,0,2.6453657,-2.6644039,-5.3585052)"><g
         style="shape-rendering:crispEdges"
         id="g1"
         transform="matrix(0.26458333,0,0,0.26458333,32.496554,3.3890175)"><path
           stroke="#009a86"
           d="M 0,0 H 97 M 0,1 H 97 M 0,2 H 97 M 0,3 H 97 M 0,4 H 97 M 0,5 h 5 m 87,0 h 5 M 0,6 h 5 m 87,0 h 5 M 0,7 h 5 m 87,0 h 5 M 0,8 h 5 m 87,0 h 5 M 0,9 h 5 m 87,0 h 5 M 0,10 h 5 m 87,0 h 5 M 0,11 h 5 m 87,0 h 5 M 0,12 h 5 m 87,0 h 5 M 0,13 h 5 m 87,0 h 5 M 0,14 h 5 m 87,0 h 5 M 0,15 h 5 m 87,0 h 5 M 0,16 h 5 m 87,0 h 5 M 0,17 h 5 m 87,0 h 5 M 0,18 h 5 m 87,0 h 5 M 0,19 h 5 m 87,0 h 5 M 0,20 h 5 m 87,0 h 5 M 0,21 h 5 m 87,0 h 5 M 0,22 h 5 m 87,0 h 5 M 0,23 h 5 m 87,0 h 5 M 0,24 h 5 m 87,0 h 5 M 0,25 h 5 m 87,0 h 5 M 0,26 h 5 m 87,0 h 5 M 0,27 h 5 m 87,0 h 5 M 0,28 h 5 m 87,0 h 5 M 0,29 h 5 m 87,0 h 5 M 0,30 h 5 m 87,0 h 5 M 0,31 h 5 m 87,0 h 5 M 0,32 h 5 m 87,0 h 5 M 0,33 h 5 m 87,0 h 5 M 0,34 h 5 m 87,0 h 5 M 0,35 h 5 m 87,0 h 5 M 0,36 h 5 m 87,0 h 5 M 0,37 h 5 m 87,0 h 5 M 0,38 h 5 m 87,0 h 5 M 0,39 h 5 m 87,0 h 5 M 0,40 h 5 m 87,0 h 5 M 0,41 h 5 m 87,0 h 5 M 0,42 h 5 m 87,0 h 5 M 0,43 h 5 m 87,0 h 5 M 0,44 h 5 m 87,0 h 5 M 0,45 h 5 m 87,0 h 5 M 0,46 h 5 m 87,0 h 5 M 0,47 h 5 m 87,0 h 5 M 0,48 h 5 m 87,0 h 5 M 0,49 h 5 m 87,0 h 5 M 0,50 h 5 m 87,0 h 5 M 0,51 h 5 m 87,0 h 5 M 0,52 h 5 m 87,0 h 5 M 0,53 h 5 m 87,0 h 5 M 0,54 h 5 m 87,0 h 5 M 0,55 h 5 m 87,0 h 5 M 0,56 h 5 m 87,0 h 5 M 0,57 h 5 m 87,0 h 5 M 0,58 h 5 m 87,0 h 5 M 0,59 h 5 m 87,0 h 5 M 0,60 h 5 m 87,0 h 5 M 0,61 h 5 m 87,0 h 5 M 0,62 h 5 m 87,0 h 5 M 0,63 h 5 m 87,0 h 5 M 0,64 H 97 M 0,65 H 97 M 0,66 H 97 M 0,67 H 97 M 0,68 h 97"
           id="path1" /><path
           stroke="#47436e"
           d="m 5,5 h 3 m 9,0 h 3 m 8,0 h 2 m 11,0 h 1 m 1,0 h 1 m 1,0 h 8 m 1,0 h 12 m 1,0 h 4 m 1,0 h 2 m 15,0 h 2 M 5,6 h 1 m 1,0 h 1 m 9,0 h 1 m 1,0 h 1 m 9,0 h 1 m 12,0 h 1 m 1,0 h 8 m 1,0 h 2 m 3,0 h 1 m 1,0 h 6 m 1,0 h 2 m 1,0 h 1 m 2,0 h 2 m 16,0 h 1 M 5,7 h 1 m 1,0 h 1 m 9,0 h 1 m 1,0 h 2 m 5,0 h 1 m 2,0 h 2 m 12,0 h 2 m 1,0 h 2 m 1,0 h 5 m 5,0 h 1 m 1,0 h 4 m 1,0 h 2 m 1,0 h 2 m 1,0 h 1 M 6,8 h 2 m 9,0 h 1 m 1,0 h 1 m 1,0 h 1 m 3,0 h 3 m 1,0 h 2 m 4,0 h 1 m 7,0 h 1 m 1,0 h 2 m 1,0 h 5 m 7,0 h 1 m 1,0 h 4 m 1,0 h 1 m 1,0 h 1 m 1,0 h 1 M 5,9 h 2 m 1,0 h 1 m 7,0 h 2 m 1,0 h 1 m 1,0 h 5 m 2,0 h 4 m 1,0 h 3 m 7,0 h 5 m 1,0 h 2 m 1,0 h 1 m 7,0 h 3 m 1,0 h 1 m 1,0 h 1 m 1,0 h 3 M 7,10 h 1 m 1,0 h 1 m 5,0 h 1 m 1,0 h 2 m 2,0 h 7 m 1,0 h 8 m 5,0 h 4 m 1,0 h 2 m 3,0 h 1 m 7,0 h 1 m 2,0 h 1 m 2,0 h 3 m 1,0 h 1 M 5,11 h 1 m 2,0 h 7 m 1,0 h 3 m 2,0 h 17 m 3,0 h 7 m 1,0 h 2 m 1,0 h 1 m 7,0 h 2 m 2,0 h 6 M 6,12 h 1 m 1,0 h 5 m 2,0 h 4 m 2,0 h 15 m 1,0 h 12 m 2,0 h 2 m 1,0 h 1 m 3,0 H 70 M 5,13 h 1 m 1,0 h 2 m 2,0 h 8 m 2,0 h 1 m 5,0 h 4 m 3,0 h 3 m 1,0 h 7 m 3,0 h 4 m 2,0 h 8 m 7,0 h 1 M 6,14 h 5 m 1,0 h 7 m 9,0 h 2 m 3,0 h 1 m 3,0 h 6 m 2,0 h 3 m 7,0 h 1 m 1,0 h 4 M 6,15 h 1 m 1,0 h 1 m 2,0 h 1 m 2,0 h 2 m 1,0 h 1 m 11,0 h 1 m 1,0 h 2 m 1,0 h 3 m 2,0 h 2 m 1,0 h 3 m 11,0 h 1 m 1,0 h 3 M 9,16 h 2 m 1,0 h 2 m 3,0 h 2 m 10,0 h 2 m 2,0 h 1 m 3,0 h 2 m 2,0 h 1 m 15,0 h 1 m 1,0 h 1 M 8,17 h 2 m 1,0 h 1 m 6,0 h 1 m 10,0 h 1 m 1,0 h 2 m 25,0 h 1 m -43,1 h 3 m 11,0 h 1 m 28,0 h 1 M 8,19 h 2 m 4,0 h 4 m 11,0 h 1 m 19,0 h 2 m 8,0 h 1 m -50,1 h 1 m 1,0 h 3 m 2,0 h 2 m 9,0 h 1 m 13,0 h 2 m 1,0 h 1 m 5,0 h 2 m 6,0 h 1 m -49,1 h 1 m 2,0 h 3 m 4,0 h 1 m 5,0 h 1 m 13,0 h 2 m 7,0 h 1 m 1,0 h 2 m 6,0 h 1 m -44,1 h 2 m 20,0 h 3 m 7,0 h 1 m 1,0 h 1 m 8,0 h 1 m -47,1 h 3 m 20,0 h 2 m 1,0 h 1 m 10,0 h 1 m 1,0 h 1 m 7,0 h 1 m -26,1 h 1 m 2,0 h 1 m 21,0 h 1 m 9,0 h 1 m 1,0 h 1 m 2,0 h 1 M 6,25 h 1 m 28,0 h 1 m 2,0 h 1 m 9,0 h 1 m 12,0 h 1 m 10,0 h 1 m 1,0 h 1 m 4,0 h 1 M 7,26 h 1 m 8,0 h 1 m 20,0 h 1 m 10,0 h 1 m 12,0 h 1 m 6,0 h 1 m 1,0 h 2 M 8,27 h 2 m 26,0 h 1 m 11,0 h 1 m 11,0 h 1 m 3,0 h 1 m 7,0 h 2 m 3,0 h 1 m 8,0 h 2 M 9,28 h 5 m 24,0 h 1 m 9,0 h 1 m 11,0 h 1 m 3,0 h 1 m 10,0 h 1 m 14,0 h 2 m -79,1 h 2 m 45,0 h 1 m 11,0 h 1 m 3,0 h 1 m 4,0 h 4 m 5,0 h 1 M 7,30 h 1 m 22,0 h 1 m 4,0 h 1 m 5,0 h 1 m 7,0 h 2 m 5,0 h 1 m 3,0 h 1 m 12,0 h 1 m 11,0 h 2 M 8,31 h 1 m 20,0 h 1 m 1,0 h 1 m 9,0 h 1 m 3,0 h 1 m 13,0 h 1 m 19,0 h 2 m 8,0 h 1 m -62,1 h 1 m 1,0 h 1 m 2,0 h 1 m 12,0 h 1 m 11,0 h 1 m 19,0 h 1 m -52,1 h 1 m 1,0 h 1 m 3,0 h 1 m 8,0 h 1 m 14,0 h 1 m 21,0 h 1 m -54,1 h 3 m 2,0 h 2 m 9,0 h 2 m 21,0 h 2 m 12,0 h 1 m -54,1 h 1 m 1,0 h 1 m 1,0 h 2 m 12,0 h 2 m 17,0 h 2 m 14,0 h 1 m -50,1 h 1 m 15,0 h 5 m 11,0 h 1 m -35,2 h 1 m 19,0 h 2 m 35,0 h 1 m -59,1 h 1 m 30,0 h 1 M 5,40 h 1 m 35,0 h 1 m 2,0 h 1 m 35,0 h 1 M 6,41 h 3 m 1,0 h 1 m 16,0 h 1 m 17,0 h 2 m 32,0 h 1 m 2,0 h 1 m 1,0 h 1 M 7,42 h 3 m 1,0 h 1 m 35,0 h 4 m 4,0 h 2 m 19,0 h 1 m 3,0 h 2 m 1,0 h 1 m 4,0 h 4 M 6,43 h 3 m 1,0 h 1 m 1,0 h 2 m 13,0 h 1 m 25,0 h 1 m 25,0 h 1 m 2,0 h 1 m 4,0 h 1 M 5,44 h 1 m 5,0 h 1 m 14,0 h 1 m 14,0 h 2 m 3,0 h 1 m 4,0 h 2 m 24,0 h 2 m 4,0 h 3 m -74,1 h 2 m 67,0 h 3 m -70,1 h 1 m 64,0 h 4 m -27,1 h 1 m 19,0 h 5 m 7,0 h 4 m -37,1 h 1 m 17,0 h 2 m 9,0 h 1 M 5,49 h 3 m 43,0 h 1 m 9,0 h 5 m 2,0 h 5 m 2,0 h 3 m 4,0 h 1 M 8,50 h 1 m 31,0 h 1 m 17,0 h 2 m 3,0 h 5 m 1,0 h 3 m 2,0 h 1 m 5,0 h 2 m 9,0 h 1 M 6,51 h 1 m 2,0 h 3 m 26,0 h 2 m 8,0 h 2 m 1,0 h 2 m 2,0 h 1 m 4,0 h 5 m 8,0 h 1 M 5,52 h 4 m 26,0 h 3 m 8,0 h 2 m 2,0 h 1 m 3,0 h 1 m 7,0 h 2 m 3,0 h 3 m 1,0 h 2 M 7,53 h 7 m 20,0 h 2 m 2,0 h 1 m 9,0 h 2 m 2,0 h 2 m 7,0 h 2 m 6,0 h 2 m 1,0 h 1 m 18,0 h 1 m -52,1 h 5 m 6,0 h 2 m 5,0 h 5 m 8,0 h 1 m 2,0 h 2 m 2,0 h 2 m 8,0 h 4 M 6,55 h 1 m 5,0 h 5 m 22,0 h 3 m 3,0 h 7 m 4,0 h 4 m 27,0 h 2 m 2,0 h 1 M 7,56 h 8 m 22,0 h 3 m 32,0 h 1 m 1,0 h 1 M 9,57 h 4 m 24,0 h 1 m 14,0 h 8 m 10,0 h 1 m 3,0 h 1 m 5,0 h 1 m -40,1 h 4 m 41,0 h 1 M 5,59 h 1 m 5,0 h 1 m 3,0 h 1 m 24,0 h 1 m 4,0 h 1 m 17,0 h 5 M 6,60 h 1 m 7,0 h 1 m 24,0 h 1 m 17,0 h 1 m 3,0 h 3 M 7,61 h 3 m 47,0 h 3 m -50,1 h 1 m 47,0 h 1 m 0,1 h 1"
           id="path2" /><path
           stroke="#5783a6"
           d="m 8,5 h 1 m 7,0 h 1 m 3,0 h 1 m 5,0 h 1 m 3,0 h 1 m 5,0 h 1 m 1,0 h 3 m 12,0 h 1 m 27,0 h 7 M 8,6 h 2 m 6,0 h 1 m 3,0 h 1 m 5,0 h 1 m 3,0 h 1 m 5,0 h 2 m 3,0 h 1 m 10,0 h 1 m 2,0 h 3 m 22,0 h 2 m 5,0 h 3 M 8,7 h 1 m 7,0 h 1 m 4,0 h 1 m 3,0 h 1 m 5,0 h 1 m 3,0 h 2 m 5,0 h 1 m 11,0 h 1 m 3,0 h 1 m 20,0 h 1 m 9,0 h 2 M 8,8 h 1 m 7,0 h 1 m 5,0 h 3 m 7,0 h 3 m 1,0 h 1 m 5,0 h 1 m 10,0 h 1 m 5,0 h 1 m 18,0 h 1 m 11,0 h 2 M 9,9 h 1 m 5,0 h 1 m 20,0 h 1 m 5,0 h 1 m 8,0 h 1 m 1,0 h 1 m 5,0 h 1 m 17,0 h 1 m 13,0 h 1 m -82,1 h 5 m 22,0 h 1 m 3,0 h 1 m 9,0 h 1 m 1,0 h 1 m 5,0 h 1 m 16,0 h 1 m -39,1 h 3 m 13,0 h 1 m 3,0 h 1 m 16,0 h 1 m -23,1 h 1 m 1,0 h 3 m 16,0 h 1 m -53,1 h 5 m 47,0 h 1 m -54,1 h 1 m 5,0 h 1 m 45,0 h 1 m -46,1 h 1 m 34,0 h 3 m 7,0 h 1 m -47,1 h 2 m 10,0 h 2 m 1,0 h 3 m 17,0 h 1 m 3,0 h 1 m 6,0 h 1 m -46,1 h 1 m 8,0 h 2 m 2,0 h 1 m 3,0 h 3 m 13,0 h 1 m 5,0 h 1 m 5,0 h 1 m -46,1 h 1 m 7,0 h 1 m 2,0 h 2 m 1,0 h 3 m 3,0 h 2 m 11,0 h 1 m 5,0 h 1 m 5,0 h 2 m -47,1 h 1 m 5,0 h 2 m 1,0 h 2 m 2,0 h 1 m 4,0 h 2 m 13,0 h 1 m 5,0 h 1 m 4,0 h 1 m 1,0 h 2 m -55,1 h 1 m 5,0 h 1 m 5,0 h 1 m 2,0 h 1 m 2,0 h 2 m 21,0 h 1 m 3,0 h 1 m 8,0 h 1 M 6,21 h 1 m 15,0 h 5 m 5,0 h 1 m 1,0 h 2 m 1,0 h 2 m 22,0 h 1 m 1,0 h 3 m 1,0 h 1 m 8,0 h 1 M 7,22 h 1 m 23,0 h 1 m 1,0 h 1 m 2,0 h 1 m 17,0 h 1 m 7,0 h 1 m 3,0 h 1 m 6,0 h 1 m 3,0 h 1 m 13,0 h 1 M 8,23 h 1 m 14,0 h 2 m 5,0 h 1 m 1,0 h 1 m 1,0 h 2 m 19,0 h 1 m 18,0 h 1 m 3,0 h 1 m 11,0 h 2 m -80,1 h 2 m 7,0 h 2 m 6,0 h 1 m 1,0 h 1 m 1,0 h 1 m 15,0 h 2 m 4,0 h 1 m 8,0 h 1 m 10,0 h 1 m 2,0 h 2 m 9,0 h 2 M 5,25 h 1 m 3,0 h 2 m 16,0 h 2 m 1,0 h 1 m 1,0 h 1 m 18,0 h 1 m 1,0 h 1 m 2,0 h 1 m 9,0 h 1 m 9,0 h 1 m 3,0 h 2 m 5,0 h 3 m 1,0 h 1 M 6,26 h 1 m 4,0 h 3 m 12,0 h 1 m 2,0 h 1 m 1,0 h 1 m 20,0 h 1 m 3,0 h 1 m 6,0 h 1 m 13,0 h 1 m 5,0 h 6 m 1,0 h 1 M 5,27 h 1 m 1,0 h 1 m 16,0 h 2 m 1,0 h 2 m 2,0 h 1 m 20,0 h 1 m 1,0 h 1 m 2,0 h 1 m 5,0 h 1 m 14,0 h 2 m 9,0 h 1 M 6,28 h 1 m 1,0 h 1 m 17,0 h 1 m 4,0 h 1 m 13,0 h 1 m 8,0 h 1 m 2,0 h 1 m 5,0 h 1 m 5,0 h 2 m 3,0 h 1 m 5,0 h 8 M 5,29 h 1 m 1,0 h 1 m 1,0 h 2 m 13,0 h 2 m 6,0 h 1 m 2,0 h 1 m 9,0 h 1 m 7,0 h 1 m 3,0 h 1 m 5,0 h 1 m 2,0 h 3 m 2,0 h 1 m 3,0 h 1 M 6,30 h 1 m 1,0 h 1 m 2,0 h 5 m 1,0 h 2 m 4,0 h 1 m 2,0 h 1 m 6,0 h 2 m 7,0 h 1 m 1,0 h 1 m 1,0 h 1 m 10,0 h 1 m 5,0 h 1 m 8,0 h 1 m 3,0 h 5 M 7,31 h 1 m 1,0 h 2 m 13,0 h 2 m 10,0 h 1 m 1,0 h 1 m 3,0 h 1 m 1,0 h 1 m 2,0 h 2 m 7,0 h 1 m 5,0 h 1 m 2,0 h 4 m 12,0 h 2 M 8,32 h 1 m 2,0 h 6 m 1,0 h 1 m 4,0 h 1 m 12,0 h 1 m 1,0 h 1 m 3,0 h 1 m 1,0 h 2 m 8,0 h 2 m 7,0 h 2 m 4,0 h 1 m 21,0 h 1 M 6,33 h 2 m 1,0 h 2 m 27,0 h 1 m 2,0 h 1 m 1,0 h 1 m 2,0 h 8 m 2,0 h 1 m 4,0 h 2 m 7,0 h 1 m 18,0 h 2 M 5,34 h 1 m 5,0 h 6 m 17,0 h 3 m 1,0 h 1 m 2,0 h 1 m 2,0 h 2 m 8,0 h 2 m 4,0 h 1 m 9,0 h 1 m 16,0 h 2 M 6,35 h 3 m 3,0 h 1 m 26,0 h 1 m 2,0 h 2 m 2,0 h 8 m 5,0 h 1 m 6,0 h 1 m 4,0 h 1 m 10,0 h 6 m 2,0 h 2 M 5,36 h 1 m 3,0 h 1 m 1,0 h 1 m 19,0 h 1 m 1,0 h 5 m 1,0 h 1 m 2,0 h 1 m 1,0 h 1 m 10,0 h 1 m 1,0 h 2 m 5,0 h 2 m 5,0 h 1 m 9,0 h 3 m 4,0 h 3 M 5,37 h 1 m 3,0 h 1 m 1,0 h 1 m 18,0 h 1 m 1,0 h 1 m 5,0 h 1 m 1,0 h 1 m 2,0 h 2 m 2,0 h 1 m 3,0 h 4 m 1,0 h 1 m 4,0 h 1 m 1,0 h 1 m 3,0 h 1 m 3,0 h 1 m 8,0 h 2 m 2,0 h 5 m 2,0 h 1 M 5,38 h 1 m 3,0 h 1 m 1,0 h 1 m 19,0 h 1 m 7,0 h 1 m 1,0 h 1 m 3,0 h 2 m 7,0 h 2 m 4,0 h 1 m 1,0 h 1 m 1,0 h 2 m 1,0 h 1 m 3,0 h 1 m 7,0 h 1 m 2,0 h 3 m 5,0 h 2 M 6,39 h 3 m 2,0 h 1 m 16,0 h 1 m 1,0 h 1 m 9,0 h 1 m 6,0 h 7 m 7,0 h 1 m 1,0 h 1 m 2,0 h 1 m 1,0 h 1 m 1,0 h 1 m 7,0 h 1 m 2,0 h 1 m 5,0 h 4 m -79,1 h 1 m 15,0 h 1 m 1,0 h 1 m 9,0 h 1 m 20,0 h 1 m 1,0 h 1 m 4,0 h 1 m 1,0 h 1 m 5,0 h 1 m 1,0 h 1 m 3,0 h 4 m -73,1 h 4 m 11,0 h 1 m 1,0 h 1 m 9,0 h 1 m 20,0 h 1 m 2,0 h 4 m 1,0 h 1 m 5,0 h 1 m 1,0 h 1 m 2,0 h 1 m -53,1 h 1 m 1,0 h 1 m 9,0 h 1 m 19,0 h 1 m 1,0 h 1 m 5,0 h 1 m 4,0 h 2 m 4,0 h 1 m -50,1 h 1 m 9,0 h 1 m 20,0 h 1 m 1,0 h 4 m 5,0 h 2 m 2,0 h 1 m 1,0 h 1 m -50,1 h 1 m 1,0 h 1 m 7,0 h 1 m 35,0 h 1 m 12,0 h 3 m -59,1 h 1 m 5,0 h 1 m 1,0 h 1 m 15,0 h 9 m 5,0 h 5 m 11,0 h 2 m 3,0 h 1 m -61,1 h 1 m 1,0 h 5 m 1,0 h 1 m 4,0 h 1 m 3,0 h 3 m 4,0 h 1 m 9,0 h 6 m 13,0 h 2 m -41,1 h 3 m 10,0 h 2 m 2,0 h 3 m 16,0 h 3 m -45,1 h 10 m 5,0 h 1 m 23,0 h 3 m -44,1 h 4 m 11,0 h 2 m 25,0 h 1 m 3,0 h 1 m -52,1 h 5 m 4,0 h 5 m 2,0 h 4 m 8,0 h 3 m 14,0 h 2 m -33,1 h 2 m 17,0 h 3 m 7,0 h 2 m 2,0 h 1 m -16,1 h 1 m 13,0 h 1 m -16,1 h 1 m 2,0 h 1 m 7,0 h 1 m -10,1 h 1 m 15,0 h 1 m 4,0 h 1 m -24,1 h 2 m 8,0 h 1 m -14,1 h 5 m 2,0 h 1 m 23,0 h 1 m -29,1 h 1 m -10,1 h 1 m 1,0 h 1 m 12,0 h 1 m 1,0 h 1 m -12,3 h 1 m -13,1 h 1 m 10,0 h 1 m -7,1 h 1"
           id="path3" /><path
           stroke="#6d9ba9"
           d="m 9,5 h 1 m 5,0 h 1 m 5,0 h 1 m 1,0 h 1 m 1,0 h 1 m 5,0 h 1 m 3,0 h 1 m 1,0 h 1 m 4,0 h 1 m 1,0 h 1 m 26,0 h 1 m 2,0 h 2 m 1,0 h 2 M 22,6 h 1 m 1,0 h 1 m 7,0 h 1 m 1,0 h 1 m 4,0 h 1 m 3,0 h 1 m 15,0 h 1 m 9,0 h 1 m 1,0 h 2 m 2,0 h 2 m 2,0 h 1 m 3,0 h 2 M 9,7 h 1 m 5,0 h 1 m 7,0 h 1 m 9,0 h 1 m 4,0 h 1 m 1,0 h 1 m 15,0 h 2 m 2,0 h 1 m 7,0 h 1 m 2,0 h 1 m 2,0 h 1 m 3,0 h 1 m 1,0 h 9 M 10,8 h 1 m 3,0 h 1 m 22,0 h 1 m 3,0 h 1 m 12,0 h 2 m 1,0 h 1 m 3,0 h 1 m 6,0 h 1 m 1,0 h 1 m 2,0 h 1 m 1,0 h 1 m 1,0 h 1 m 1,0 H 90 M 11,9 h 3 m 24,0 h 1 m 1,0 h 1 m 13,0 h 1 m 3,0 h 1 m 4,0 h 1 m 3,0 h 1 m 3,0 h 2 m 1,0 h 1 m 1,0 h 1 m 1,0 h 3 m 6,0 h 4 m -52,1 h 1 m 6,0 h 1 m 8,0 h 1 m 1,0 h 1 m 3,0 h 2 m 1,0 h 2 m 3,0 h 1 m 1,0 h 3 m 1,0 h 1 m 2,0 h 1 m 7,0 h 1 m 2,0 h 3 m -39,1 h 1 m 2,0 h 1 m 2,0 h 1 m 2,0 h 2 m 6,0 h 3 m 1,0 h 1 m 2,0 h 1 m 10,0 h 1 m 1,0 h 2 M 5,12 h 1 m 64,0 h 2 m 1,0 h 1 m 1,0 h 2 m 12,0 h 1 m 1,0 h 1 M 6,13 h 1 m 2,0 h 2 m 20,0 h 2 m 19,0 h 2 m 10,0 h 4 m 3,0 h 1 m 1,0 h 1 m 2,0 h 1 m 13,0 h 1 M 5,14 h 1 m 5,0 h 1 m 11,0 h 3 m 4,0 h 1 m 20,0 h 4 m 7,0 h 1 m 3,0 h 1 m 3,0 h 1 m 1,0 h 1 m 1,0 h 2 M 7,15 h 1 m 4,0 h 2 m 2,0 h 1 m 1,0 h 1 m 3,0 h 1 m 3,0 h 1 m 18,0 h 3 m 3,0 h 5 m 5,0 h 1 m 4,0 h 2 m 1,0 h 1 m 2,0 h 1 m 2,0 h 1 M 7,16 h 1 m 6,0 h 3 m 4,0 h 1 m 12,0 h 1 m 13,0 h 3 m 1,0 h 5 m 7,0 h 1 m 2,0 h 3 m 1,0 h 1 m 3,0 h 1 M 6,17 h 1 m 7,0 h 2 m 5,0 h 1 m 5,0 h 1 m 22,0 h 2 m 3,0 h 3 m 5,0 h 1 m 1,0 h 1 m 2,0 h 1 m 2,0 h 1 m 3,0 h 1 M 5,18 h 1 m 1,0 h 1 m 2,0 h 1 m 1,0 h 2 m 7,0 h 1 m 5,0 h 1 m 1,0 h 1 m 5,0 h 1 m 1,0 h 2 m 7,0 h 2 m 3,0 h 4 m 1,0 h 3 m 3,0 h 1 m 3,0 h 1 m 4,0 h 2 m 2,0 h 2 M 5,19 h 2 m 3,0 h 2 m 10,0 h 1 m 3,0 h 1 m 6,0 h 1 m 2,0 h 1 m 5,0 h 4 m 7,0 h 3 m 1,0 h 2 m 4,0 h 1 m 1,0 h 1 m 4,0 h 1 m 5,0 h 1 m 14,0 h 1 M 6,20 h 1 m 2,0 h 1 m 1,0 h 1 m 11,0 h 3 m 6,0 h 1 m 1,0 h 2 m 5,0 h 1 m 5,0 h 2 m 1,0 h 1 m 3,0 h 3 m 1,0 h 1 m 1,0 h 1 m 3,0 h 1 m 7,0 h 1 m 1,0 h 1 m 2,0 h 1 m 13,0 h 1 M 7,21 h 1 m 1,0 h 2 m 1,0 h 2 m 17,0 h 1 m 1,0 h 1 m 5,0 h 2 m 14,0 h 3 m 1,0 h 1 m 12,0 h 1 m 1,0 h 2 m 1,0 h 2 m 11,0 h 1 m -81,1 h 1 m 3,0 h 3 m 15,0 h 1 m 4,0 h 2 m 6,0 h 1 m 1,0 h 1 m 5,0 h 1 m 2,0 h 2 m 1,0 h 1 m 1,0 h 1 m 13,0 h 2 m 2,0 h 1 m 9,0 h 1 m -79,1 h 2 m 18,0 h 1 m 4,0 h 1 m 5,0 h 2 m 1,0 h 1 m 4,0 h 1 m 1,0 h 1 m 4,0 h 2 m 1,0 h 1 m 1,0 h 5 m 9,0 h 2 m 1,0 h 2 m 6,0 h 2 M 5,24 h 2 m 12,0 h 1 m 10,0 h 1 m 3,0 h 2 m 5,0 h 2 m 9,0 h 1 m 4,0 h 2 m 1,0 h 1 m 1,0 h 1 m 14,0 h 1 m 3,0 h 8 M 7,25 h 1 m 6,0 h 6 m 9,0 h 1 m 3,0 h 2 m 6,0 h 1 m 1,0 h 1 m 14,0 h 1 m 1,0 h 1 m 1,0 h 1 m 12,0 h 1 m 7,0 h 2 M 8,26 h 1 m 18,0 h 2 m 3,0 h 3 m 5,0 h 2 m 1,0 h 1 m 10,0 h 1 m 3,0 h 1 m 1,0 h 1 m 15,0 h 1 m 1,0 h 1 m 2,0 h 2 m -69,1 h 2 m 1,0 h 2 m 7,0 h 1 m 3,0 h 1 m 1,0 h 4 m 4,0 h 2 m 1,0 h 1 m 15,0 h 1 m 1,0 h 1 m 18,0 h 1 m -58,1 h 3 m 3,0 h 2 m 1,0 h 5 m 2,0 h 1 m 1,0 h 1 m 1,0 h 2 m 10,0 h 1 m 3,0 h 1 m 1,0 h 1 m 11,0 h 1 m -63,1 h 2 m 4,0 h 2 m 4,0 h 1 m 3,0 h 3 m 3,0 h 2 m 4,0 h 1 m 1,0 h 1 m 1,0 h 2 m 4,0 h 1 m 6,0 h 1 m 2,0 h 1 m 1,0 h 1 m 12,0 h 1 m 10,0 h 4 m -62,1 h 2 m 8,0 h 1 m 1,0 h 1 m 5,0 h 1 m 6,0 h 1 m 2,0 h 1 m 3,0 h 1 m 1,0 h 1 m 3,0 h 4 m 1,0 h 1 m -44,1 h 1 m 11,0 h 1 m 6,0 h 1 m 7,0 h 2 m 2,0 h 1 m 1,0 h 1 m 2,0 h 2 m 4,0 h 1 m 1,0 h 1 m 2,0 h 1 m 2,0 h 2 m 4,0 h 2 m -46,1 h 1 m 1,0 h 1 m 5,0 h 7 m 3,0 h 1 m 1,0 h 1 m 10,0 h 1 m 1,0 h 1 m 2,0 h 3 m -50,1 h 1 m 10,0 h 1 m 18,0 h 1 m 6,0 h 4 m 2,0 h 1 m 1,0 h 2 m 1,0 h 2 m 2,0 h 1 m -42,1 h 1 m 16,0 h 2 m 5,0 h 2 m 3,0 h 1 m 2,0 h 1 m 1,0 h 2 m 1,0 h 1 m -63,1 h 3 m 23,0 h 1 m 13,0 h 3 m 4,0 h 2 m 2,0 h 1 m 2,0 h 2 m 3,0 h 1 m 1,0 h 1 m 2,0 h 1 M 6,36 h 1 m 1,0 h 1 m 4,0 h 1 m 3,0 h 1 m 10,0 h 1 m 11,0 h 1 m 2,0 h 1 m 16,0 h 1 m 2,0 h 1 m 2,0 h 1 m 1,0 h 2 m 3,0 h 1 m 1,0 h 1 m 1,0 h 1 m -66,1 h 1 m 20,0 h 4 m 4,0 h 1 m 6,0 h 3 m 8,0 h 1 m 2,0 h 1 m 6,0 h 1 m 5,0 h 1 M 6,38 h 1 m 1,0 h 1 m 3,0 h 1 m 20,0 h 1 m 2,0 h 2 m 2,0 h 1 m 1,0 h 1 m 14,0 h 2 m 10,0 h 1 m 2,0 h 1 m 1,0 h 1 M 9,39 h 1 m 22,0 h 1 m 4,0 h 2 m 2,0 h 4 m 11,0 h 1 m 2,0 h 1 m 5,0 h 1 m 1,0 h 1 m 4,0 h 1 m 1,0 h 1 M 6,40 h 3 m 1,0 h 1 m 2,0 h 1 m 3,0 h 1 m 13,0 h 2 m 6,0 h 1 m 2,0 h 2 m 1,0 h 2 m 7,0 h 3 m 2,0 h 1 m 6,0 h 1 m 4,0 h 1 m 1,0 h 1 m -63,1 h 1 m 19,0 h 1 m 7,0 h 1 m 4,0 h 1 m 2,0 h 9 m 3,0 h 1 m 10,0 h 1 m -40,1 h 1 m 6,0 h 2 m 2,0 h 1 m 8,0 h 3 m 4,0 h 1 m 2,0 h 1 m -48,1 h 2 m 15,0 h 3 m 4,0 h 2 m 3,0 h 2 m 5,0 h 3 m 6,0 h 1 m 2,0 h 1 M 6,44 h 2 m 25,0 h 2 m 2,0 h 1 M 6,45 h 1 m 27,0 h 3 M 8,46 h 2 m 2,0 h 1 m 30,0 h 1 m 8,0 h 1 M 7,47 h 1 m 2,0 h 1 m 1,0 h 2 m 34,0 h 2 M 6,48 h 1 m 4,0 h 1 m 2,0 h 1 m -6,1 h 1 m 2,0 h 1 m 1,0 h 2 m -6,1 h 1 m 2,0 h 2 m 23,0 h 2 m -26,1 h 2 m 21,0 h 1 m -25,1 h 1 m 2,0 h 1 m 28,0 h 1 m -32,1 h 2"
           id="path4" /><path
           stroke="#c2c580"
           d="m 10,5 h 2 m 1,0 h 2 m 7,0 h 1 m 1,0 h 1 m 7,0 h 1 m 1,0 h 1 M 10,6 h 1 m 3,0 h 2 m 5,0 h 1 m 1,0 h 1 m 1,0 h 1 m 5,0 h 1 m 1,0 h 1 m 1,0 h 1 m 2,0 h 1 m 1,0 h 1 m 41,0 h 1 m 2,0 h 2 M 10,7 h 2 m 1,0 h 2 m 7,0 h 1 m 1,0 h 1 m 7,0 h 1 m 1,0 h 1 m 2,0 h 1 m 1,0 h 1 m 1,0 h 1 m 13,0 h 1 M 9,8 h 1 m 1,0 h 3 m 1,0 h 1 m 22,0 h 1 m 1,0 h 1 m 15,0 h 1 m 1,0 h 1 M 10,9 h 1 m 3,0 h 1 m 22,0 h 1 m 1,0 h 1 m 1,0 h 1 m 13,0 h 1 m 1,0 h 1 m 23,0 h 6 m -49,1 h 1 m 1,0 h 1 m 13,0 h 1 m 1,0 h 1 m 1,0 h 1 m 18,0 h 1 m 1,0 h 7 m 1,0 h 2 m -34,1 h 1 m 1,0 h 1 m 18,0 h 1 m 1,0 h 4 m 3,0 h 3 m 1,0 h 1 m -13,1 h 3 m 3,0 h 6 m 1,0 h 1 m -16,1 h 1 m 1,0 h 2 m 3,0 h 8 m 1,0 h 1 m -70,1 h 1 m 3,0 h 1 m 49,0 h 2 m 4,0 h 10 m -71,1 h 1 m 1,0 h 3 m 1,0 h 1 m 46,0 h 1 m 1,0 h 2 m 4,0 h 10 m -70,1 h 2 m 1,0 h 2 m 36,0 h 1 m 1,0 h 1 m 8,0 h 1 m 1,0 h 2 m 5,0 h 9 m -70,1 h 1 m 3,0 h 1 m 35,0 h 1 m 1,0 h 1 m 1,0 h 1 m 7,0 h 1 m 1,0 h 3 m 5,0 h 3 m 1,0 h 4 m -70,1 h 2 m 1,0 h 2 m 36,0 h 3 m 11,0 h 2 m 9,0 h 4 m -71,1 h 1 m 1,0 h 3 m 1,0 h 1 m 34,0 h 1 m 1,0 h 1 m 1,0 h 1 m 10,0 h 3 m 7,0 h 4 m -69,1 h 1 m 3,0 h 1 m 36,0 h 1 m 1,0 h 1 m 10,0 h 1 m 1,0 h 3 m 4,0 h 6 m -12,1 h 11 m 1,0 h 1 m -14,1 h 1 m 1,0 h 9 m 1,0 h 1 m -10,1 h 6 m 2,0 h 1 m -10,1 h 1 m 1,1 h 1 m 2,0 h 2 m 3,6 h 2 m -4,1 h 3 m -8,1 h 6 m 2,0 h 1 m -11,1 h 6 m 2,0 h 3 m -12,1 h 2 m 6,0 h 2 M 7,36 h 1 m 6,0 h 3 m 62,0 h 2 m 3,0 h 4 m 3,0 h 1 M 6,37 h 3 m 4,0 h 5 m 19,0 h 1 m 40,0 h 2 m 2,0 h 2 m 5,0 h 2 M 7,38 h 1 m 5,0 h 2 m 1,0 h 2 m 14,0 h 1 m 1,0 h 2 m 2,0 h 1 m 38,0 h 2 m 1,0 h 2 m 4,0 h 4 m -77,1 h 5 m 13,0 h 1 m 1,0 h 4 m 2,0 h 1 m 35,0 h 3 m 1,0 h 2 m 1,0 h 5 m -73,1 h 3 m 16,0 h 2 m 1,0 h 3 m 35,0 h 2 m 1,0 h 1 m 1,0 h 1 m 1,0 h 1 m -50,1 h 2 m 3,0 h 2 m 34,0 h 2 m 1,0 h 1 m 1,0 h 1 m -47,1 h 3 m 1,0 h 2 m 33,0 h 2 m 2,0 h 1 m 1,0 h 2 m -45,1 h 4 m 29,0 h 5 m 2,0 h 2 m 1,0 h 1 M 8,44 h 2 m 22,0 h 1 m 2,0 h 2 m 1,0 h 1 m 17,0 h 6 m 4,0 h 1 m 2,0 h 6 M 5,45 h 1 m 1,0 h 4 m 22,0 h 1 m 3,0 h 1 m 9,0 h 4 m 4,0 h 1 m 9,0 h 5 m 6,0 h 1 M 6,46 h 2 m 2,0 h 2 m 33,0 h 3 m 3,0 h 1 m 1,0 h 2 m 1,0 h 2 m 3,0 h 4 m 6,0 h 3 m 1,0 h 1 M 5,47 h 2 m 1,0 h 2 m 1,0 h 1 m 26,0 h 1 m 3,0 h 3 m 5,0 h 3 m 2,0 h 1 m 4,0 h 2 m 6,0 h 2 M 5,48 h 1 m 1,0 h 1 m 2,0 h 1 m 1,0 h 2 m 21,0 h 1 m 13,0 h 2 m 6,0 h 1 m -47,1 h 1 m 1,0 h 1 m 16,0 h 5 m 7,0 h 2 m 4,0 h 1 m 6,0 h 2 m -45,1 h 1 m 2,0 h 1 m 15,0 h 1 m 5,0 h 1 m 9,0 h 1 m 6,0 h 1 m -43,1 h 2 m 18,0 h 1 m 1,0 h 1 m 5,0 h 2 m 2,0 h 2 m -32,1 h 2 m 17,0 h 1 m 5,0 h 1 m -3,1 h 1 m -4,1 h 3 m -2,1 h 1"
           id="path5" /><path
           stroke="#dcaf2e"
           d="m 12,5 h 1 m 20,0 h 1 M 11,6 h 3 m -2,1 h 1 m 26,1 h 1 m 16,1 h 1 m 25,2 h 1 m -3,1 h 3 m -4,1 h 3 m -4,1 h 4 m -4,1 h 4 m -58,1 h 1 m 54,0 h 4 m -60,1 h 3 m 54,0 h 4 m -60,1 h 1 m 56,0 h 6 m -6,1 h 5 m -4,1 h 3 M 15,38 h 1 m 19,2 h 1 m -2,1 h 3 m -2,1 h 1"
           id="path6" /><path
           stroke="#1d1e18"
           d="m 27,5 h 1 m -1,1 h 2 m -2,1 h 2 M 5,8 h 1 m 22,0 h 1 m 19,1 h 1 M 5,10 h 2 m -1,1 h 2 m 41,1 h 2 M 12,22 h 2 m 23,2 h 2 m -3,1 h 2 m -3,1 h 2 m 52,3 h 1 m -3,1 h 2 m -59,1 h 1 m -2,1 h 1 m 2,1 h 1"
           id="path7" /><path
           stroke="#546496"
           d="m 66,5 h 1 m 9,0 h 1 m 2,0 h 2 m 7,0 h 1 m 2,0 h 1 M 6,6 h 1 m 11,0 h 1 m 47,0 h 1 m 10,0 h 2 m 11,0 h 1 M 6,7 h 1 m 11,0 h 1 m 26,0 h 1 m 2,0 h 1 m 16,0 h 1 m 7,0 h 1 m 1,0 h 3 m 13,0 h 1 M 18,8 h 1 m 12,0 h 1 m 12,0 h 1 m 2,0 h 1 m 18,0 h 1 m 5,0 h 1 m 1,0 h 1 m 1,0 h 1 M 7,9 h 1 m 10,0 h 1 m 7,0 h 2 m 4,0 h 1 m 32,0 h 1 m 7,0 h 1 m 1,0 h 1 M 8,10 h 1 m 7,0 h 1 m 11,0 h 1 m 20,0 h 2 m 23,0 h 1 m -60,1 h 1 m 32,0 h 1 m 2,0 h 1 m 21,0 h 1 m -61,1 h 2 m 21,0 h 1 m 35,0 h 1 m -40,1 h 1 m 3,0 h 1 m 24,0 h 2 m 4,0 h 1 m 1,0 h 1 m 1,0 h 1 m -42,1 h 2 m 1,0 h 3 m 6,0 h 1 m 4,0 h 3 m 5,0 h 1 m 4,0 h 1 m 1,0 h 3 m 1,0 h 3 m 1,0 h 1 M 5,15 h 1 m 3,0 h 2 m 19,0 h 1 m 2,0 h 1 m 3,0 h 2 m 18,0 h 1 m 4,0 h 1 m 5,0 h 1 m 1,0 h 2 M 5,16 h 2 m 1,0 h 1 m 2,0 h 1 m 19,0 h 2 m 25,0 h 1 m 1,0 h 2 m 8,0 h 1 m 1,0 h 1 M 5,17 h 1 m 1,0 h 1 m 2,0 h 1 m 1,0 h 2 m 2,0 h 2 m 12,0 h 1 m 4,0 h 2 m 2,0 h 2 m 18,0 h 2 m 8,0 h 2 m 1,0 h 1 M 6,18 h 1 m 1,0 h 2 m 1,0 h 1 m 2,0 h 2 m 15,0 h 1 m 1,0 h 2 m 10,0 h 1 m 14,0 h 1 m 7,0 h 3 M 7,19 h 1 m 4,0 h 2 m 4,0 h 1 m 11,0 h 1 m 1,0 h 1 m 15,0 h 1 m 11,0 h 1 m 7,0 h 2 m 1,0 h 1 m 1,0 h 1 M 5,20 h 1 m 1,0 h 2 m 6,0 h 2 m 12,0 h 1 m 1,0 h 1 m 12,0 h 1 m 1,0 h 1 m 2,0 h 1 m 11,0 h 1 m 5,0 h 5 m 1,0 h 1 M 5,21 h 1 m 2,0 h 1 m 8,0 h 2 m 9,0 h 1 m 1,0 h 1 m 12,0 h 7 m 1,0 h 1 m 10,0 h 1 m 3,0 h 1 m 1,0 h 4 m 1,0 h 1 M 6,22 h 1 m 2,0 h 1 m 1,0 h 1 m 9,0 h 6 m 2,0 h 1 m 12,0 h 3 m 3,0 h 1 m 1,0 h 1 m 1,0 h 1 m 10,0 h 3 m 1,0 h 6 m 1,0 h 1 M 5,23 h 1 m 1,0 h 1 m 1,0 h 2 m 2,0 h 1 m 3,0 h 2 m 3,0 h 1 m 4,0 h 2 m 12,0 h 1 m 4,0 h 4 m 4,0 h 1 m 12,0 h 7 m 1,0 h 1 M 8,24 h 1 m 2,0 h 1 m 2,0 h 3 m 8,0 h 2 m 13,0 h 1 m 3,0 h 5 m 4,0 h 2 m 8,0 h 1 m 1,0 h 6 m 1,0 h 1 m 1,0 h 1 m 16,0 h 1 m -69,1 h 3 m 13,0 h 2 m 3,0 h 2 m 1,0 h 1 m 1,0 h 2 m 3,0 h 2 m 7,0 h 3 m 1,0 h 5 m 1,0 h 1 m 3,0 h 2 m 11,0 h 1 m -69,1 h 2 m 14,0 h 2 m 4,0 h 1 m 1,0 h 2 m 2,0 h 2 m 10,0 h 1 m 1,0 h 4 m 1,0 h 1 m 2,0 h 4 m 3,0 h 2 m 8,0 h 1 m 1,0 h 1 m -82,1 h 1 m 26,0 h 3 m 4,0 h 1 m 1,0 h 2 m 2,0 h 2 m 4,0 h 1 m 5,0 h 1 m 2,0 h 7 m 2,0 h 3 m 4,0 h 5 m 2,0 h 1 m 1,0 h 2 m -78,1 h 1 m 22,0 h 1 m 9,0 h 1 m 1,0 h 1 m 1,0 h 2 m 3,0 h 1 m 5,0 h 1 m 2,0 h 4 m 2,0 h 2 m 3,0 h 4 m 8,0 h 2 M 6,29 h 1 m 8,0 h 1 m 14,0 h 2 m 4,0 h 3 m 7,0 h 2 m 2,0 h 2 m 3,0 h 1 m 6,0 h 1 m 1,0 h 2 m 3,0 h 2 m 2,0 h 1 m 3,0 h 4 m 10,0 h 1 m -63,1 h 1 m 1,0 h 2 m 3,0 h 1 m 1,0 h 1 m 8,0 h 2 m 2,0 h 1 m 1,0 h 2 m 7,0 h 1 m 1,0 h 1 m 4,0 h 1 m 1,0 h 1 m 2,0 h 2 m 5,0 h 4 m 4,0 h 3 M 5,31 h 1 m 22,0 h 1 m 3,0 h 4 m 1,0 h 1 m 11,0 h 5 m 7,0 h 1 m 8,0 h 1 m 1,0 h 2 m 1,0 h 2 m 8,0 h 4 M 6,32 h 1 m 2,0 h 2 m 15,0 h 2 m 3,0 h 2 m 1,0 h 2 m 1,0 h 1 m 22,0 h 3 m 8,0 h 1 m 1,0 h 2 m 4,0 h 9 M 5,33 h 1 m 5,0 h 4 m 9,0 h 3 m 3,0 h 2 m 2,0 h 4 m 21,0 h 2 m 11,0 h 1 m 2,0 h 1 m 2,0 h 1 m 2,0 h 2 M 6,34 h 3 m 15,0 h 2 m 3,0 h 2 m 2,0 h 1 m 3,0 h 1 m 20,0 h 2 m 7,0 h 1 m 4,0 h 1 m 2,0 h 1 m 1,0 h 2 m 1,0 h 1 M 5,35 h 1 m 3,0 h 3 m 12,0 h 2 m 1,0 h 1 m 1,0 h 1 m 2,0 h 7 m 18,0 h 2 m 8,0 h 1 m 4,0 h 1 m 1,0 h 1 m 1,0 h 2 m -68,1 h 1 m 14,0 h 3 m 1,0 h 1 m 2,0 h 1 m 5,0 h 1 m 6,0 h 1 m 5,0 h 4 m 1,0 h 1 m 4,0 h 1 m 5,0 h 1 m 4,0 h 1 m 1,0 h 1 m 1,0 h 1 m 1,0 h 1 m -69,1 h 1 m 14,0 h 5 m 1,0 h 1 m 7,0 h 1 m 5,0 h 2 m 8,0 h 1 m 4,0 h 1 m 5,0 h 1 m 1,0 h 1 m 3,0 h 3 m 1,0 h 2 m -68,1 h 1 m 14,0 h 3 m 1,0 h 2 m 16,0 h 1 m 2,0 h 4 m 5,0 h 1 m 1,0 h 1 m 6,0 h 1 m 4,0 h 1 m 1,0 h 2 M 5,39 h 1 m 4,0 h 1 m 14,0 h 2 m 2,0 h 1 m 27,0 h 1 m 2,0 h 1 m 3,0 h 1 m 6,0 h 1 m 1,0 h 1 m 17,0 h 1 M 9,40 h 1 m 1,0 h 1 m 14,0 h 2 m 1,0 h 1 m 27,0 h 2 m 1,0 h 1 m 3,0 h 2 m 1,0 h 1 m 4,0 h 1 m 13,0 h 2 M 5,41 h 1 m 3,0 h 1 m 2,0 h 1 m 13,0 h 1 m 2,0 h 1 m 11,0 h 3 m 12,0 h 3 m 1,0 h 1 m 10,0 h 2 m 8,0 h 1 m 1,0 h 1 M 6,42 h 1 m 3,0 h 1 m 1,0 h 5 m 9,0 h 2 m 1,0 h 1 m 11,0 h 1 m 1,0 h 4 m 7,0 h 1 m 2,0 h 1 m 1,0 h 1 m 9,0 h 2 m 11,0 h 1 m 1,0 h 2 M 5,43 h 1 m 3,0 h 1 m 1,0 h 1 m 14,0 h 1 m 1,0 h 2 m 11,0 h 2 m 2,0 h 5 m 4,0 h 5 m 1,0 h 1 m 19,0 h 2 m -72,1 h 1 m 1,0 h 4 m 11,0 h 2 m 1,0 h 1 m 9,0 h 1 m 2,0 h 3 m 1,0 h 4 m 2,0 h 3 m 11,0 h 2 m 7,0 h 1 m 2,0 h 2 m -70,1 h 1 m 2,0 h 2 m 10,0 h 6 m 7,0 h 1 m 1,0 h 6 m 4,0 h 4 m 20,0 h 1 m 1,0 h 2 M 5,46 h 1 m 7,0 h 1 m 1,0 h 1 m 9,0 h 2 m 1,0 h 2 m 2,0 h 1 m 5,0 h 1 m 1,0 h 3 m 31,0 h 1 m 1,0 h 2 m -64,1 h 2 m 9,0 h 2 m 1,0 h 1 m 1,0 h 8 m 19,0 h 1 m 7,0 h 3 m 2,0 h 6 M 8,48 h 2 m 5,0 h 1 m 9,0 h 1 m 1,0 h 2 m 1,0 h 5 m 21,0 h 1 m 1,0 h 2 m 6,0 h 2 M 8,49 h 1 m 1,0 h 1 m 14,0 h 1 m 1,0 h 1 m 7,0 h 2 m 8,0 h 3 m 1,0 h 2 m 3,0 h 1 m 2,0 h 1 M 5,50 h 3 m 1,0 h 1 m 1,0 h 1 m 15,0 h 1 m 18,0 h 1 m 5,0 h 2 M 5,51 h 1 m 1,0 h 2 m 24,0 h 1 m 8,0 h 2 m 6,0 h 1 m 2,0 h 1 M 9,52 h 4 m 21,0 h 1 m 3,0 h 1 m 1,0 h 2 m 2,0 h 1 m 3,0 h 2 m 1,0 h 1 M 5,53 h 2 m 9,0 h 1 m 16,0 h 1 m 2,0 h 1 m 2,0 h 1 m 6,0 h 2 m 2,0 h 1 M 5,54 h 7 m 25,0 h 2 m -3,1 h 1"
           id="path8" /><path
           stroke="#1f302f"
           d="m 20,8 h 1 m -1,1 h 1 m -2,1 h 2 m -2,1 h 2 m -2,1 h 2 m -2,1 h 2 m -2,1 h 2 m -2,1 h 2 m -2,1 h 2 m -1,1 h 1 m -1,1 h 1 m -1,1 h 1 m -1,1 h 1 m -1,1 h 1 m -1,1 h 1 m -1,1 h 1 m -1,1 h 1 m -1,1 h 2 m -2,1 h 2 m -6,1 h 1 m 2,0 h 1 m 2,0 h 1 m -7,1 h 1 m 2,0 h 1 m 2,0 h 1 m -7,1 h 1 m 5,0 h 1 m -7,1 h 1 m 5,0 h 1 m -7,1 h 2 m 1,0 h 1 m 2,0 h 1 m -6,1 h 1 m 1,0 h 1 m 2,0 h 1 m -6,1 h 2 m -2,1 h 1 m 5,0 h 1 m -7,1 h 1 m 0,1 h 1 m 5,0 h 1 m -7,1 h 1 m 5,0 h 1 m -7,1 h 1 m 5,0 h 1 m -7,1 h 1 m 5,0 h 1 m -7,1 h 1 m 6,0 h 1 m -9,1 h 1 m 7,0 h 1 m -9,1 h 1 m 7,0 h 1 m -10,1 h 1 m 8,0 h 1 m -10,1 h 1 m 8,0 h 1 m -10,1 h 1 m 8,0 h 1 m -2,1 h 1 m -1,1 h 1 m -1,1 h 1 m -9,2 h 1 m -1,1 h 1 m 0,1 h 1 m 14,0 h 1 m -16,1 h 1 m 14,0 h 1 m -16,1 h 1 m 1,0 h 1 m 13,0 h 1 m -17,1 h 1 m 1,0 h 1 m 14,0 h 1 m -18,1 h 1 m 1,0 h 1 m 15,0 h 1 m -19,1 h 1 m 2,0 h 1 m 14,0 h 1 m -19,1 h 1 m 2,0 h 1 m 14,0 h 1 m -20,1 h 1 m 18,0 h 1 m -21,1 h 1 m 8,0 h 2 m 9,0 h 1 m -22,1 h 1 m 11,0 h 1 m 8,0 h 1 m -22,1 h 1 m 12,0 h 1 m 7,0 h 1 m -23,1 h 1 m 3,0 h 1 m 10,0 h 1 m 2,0 h 1 m 3,0 h 1"
           id="path9" /><path
           stroke="#dda127"
           d="m 83,11 h 2 m -7,5 h 1 m 0,1 h 1 m 7,0 h 1 m -9,1 h 2 m 6,0 h 1 m -8,1 h 1 m 5,0 h 1 m -6,1 h 1"
           id="path10" /><path
           stroke="#000000"
           d="m 7,12 h 1 m 31,11 h 1 m -20,4 h 2 m -2,1 h 2 m -2,1 h 2 m -2,1 h 2 m -2,1 h 2 m -2,1 h 2 m -3,1 h 4 m -5,1 h 5 m -5,1 h 6 m -5,1 h 3 m 1,0 h 1 m -5,1 h 1 m 1,0 h 1 m 1,0 h 1 m -5,1 h 1 m 2,0 h 2 m -5,1 h 1 m 1,0 h 3 m -5,1 h 1 m 1,0 h 4 m 63,0 h 4 m -74,1 h 2 m 1,0 h 4 m 60,0 h 7 M 5,42 h 1 m 12,0 h 2 m 1,0 h 4 m 61,0 h 2 m -70,1 h 2 m 1,0 h 4 m 58,0 h 4 m 1,0 h 4 m -75,1 h 1 m 1,0 h 1 m 1,0 h 4 m 56,0 h 2 m 3,0 h 2 m 3,0 h 1 m -75,1 h 1 m 1,0 h 2 m 1,0 h 3 m 54,0 h 2 m 3,0 h 2 m 2,0 h 3 m -74,1 h 1 m 1,0 h 2 m 1,0 h 2 m 54,0 h 1 m 4,0 h 1 m 2,0 h 6 m -75,1 h 1 m 1,0 h 2 m 1,0 h 2 m 60,0 h 4 m -71,1 h 2 m 1,0 h 2 m 1,0 h 1 m 36,0 h 6 m 2,0 h 5 m 2,0 h 3 m 3,0 h 3 m 4,0 h 4 m -75,1 h 2 m 1,0 h 4 m 34,0 h 3 m 5,0 h 2 m 5,0 h 2 m 3,0 h 1 m 1,0 h 2 m 2,0 h 4 m -71,1 h 2 m 1,0 h 5 m 4,0 h 1 m 25,0 h 3 m 10,0 h 1 m 3,0 h 2 m 1,0 h 2 m 2,0 h 1 m 2,0 h 3 m 2,0 h 2 m -72,1 h 3 m 1,0 h 4 m 3,0 h 3 m 23,0 h 1 m 1,0 h 1 m 2,0 h 1 m 8,0 h 5 m 1,0 h 1 m 2,0 h 2 m 1,0 h 7 m 2,0 h 3 m -74,1 h 2 m 1,0 h 4 m 3,0 h 4 m 10,0 h 2 m 8,0 h 2 m 3,0 h 2 m 2,0 h 1 m 3,0 h 2 m 6,0 h 5 m 1,0 h 3 m 5,0 h 2 m -71,1 h 5 m 1,0 h 2 m 1,0 h 5 m 8,0 h 6 m 5,0 h 1 m 5,0 h 2 m 1,0 h 1 m 3,0 h 2 m 1,0 h 2 m 2,0 h 1 m 1,0 h 1 m 4,0 h 2 m 1,0 h 1 m 4,0 h 1 m -75,1 h 5 m 1,0 h 1 m 1,0 h 3 m 1,0 h 1 m 1,0 h 1 m 1,0 h 3 m 1,0 h 1 m 6,0 h 1 m 5,0 h 6 m 5,0 h 2 m 5,0 h 2 m 1,0 h 1 m 1,0 h 1 m 1,0 h 1 m 1,0 h 1 m 4,0 h 1 m 2,0 h 1 m 1,0 h 1 m 2,0 h 1 m 1,0 h 1 M 5,55 h 1 m 1,0 h 5 m 6,0 h 1 m 1,0 h 4 m 1,0 h 2 m 1,0 h 3 m 1,0 h 2 m 3,0 h 2 m 3,0 h 3 m 8,0 h 3 m 4,0 h 3 m 4,0 h 3 m 4,0 h 1 m 1,0 h 1 m 12,0 h 2 M 6,56 h 1 m 8,0 h 2 m 1,0 h 1 m 1,0 h 4 m 1,0 h 2 m 1,0 h 3 m 1,0 h 3 m 1,0 h 1 m 3,0 h 1 m 4,0 h 3 m 1,0 h 5 m 1,0 h 5 m 6,0 h 1 m 3,0 h 2 m 1,0 h 1 m 1,0 h 1 m 6,0 h 3 m 4,0 h 2 M 7,57 h 2 m 4,0 h 4 m 1,0 h 2 m 1,0 h 3 m 1,0 h 3 m 1,0 h 1 m 1,0 h 4 m 1,0 h 1 m 1,0 h 1 m 3,0 h 2 m 4,0 h 1 m 11,0 h 3 m 1,0 h 1 m 2,0 h 3 m 1,0 h 3 m 1,0 h 1 m 1,0 h 1 m 4,0 h 1 m 1,0 h 1 m 2,0 h 5 M 5,58 h 1 m 3,0 h 4 m 5,0 h 2 m 1,0 h 4 m 1,0 h 2 m 1,0 h 1 m 1,0 h 4 m 1,0 h 2 m 2,0 h 1 m 4,0 h 1 m 3,0 h 5 m 1,0 h 1 m 1,0 h 3 m 2,0 h 2 m 1,0 h 4 m 1,0 h 1 m 1,0 h 1 m 2,0 h 1 m 1,0 h 1 m 3,0 h 1 m 2,0 h 1 m 2,0 h 1 m 1,0 h 2 M 6,59 h 3 m 8,0 h 4 m 1,0 h 6 m 1,0 h 1 m 1,0 h 4 m 1,0 h 4 m 1,0 h 4 m 1,0 h 1 m 1,0 h 1 m 1,0 h 1 m 2,0 h 5 m 3,0 h 1 m 9,0 h 1 m 3,0 h 1 m 1,0 h 1 m 3,0 h 1 m 8,0 h 2 M 5,60 h 1 m 1,0 h 7 m 2,0 h 6 m 1,0 h 1 m 2,0 h 3 m 2,0 h 2 m 1,0 h 1 m 1,0 h 3 m 1,0 h 2 m 1,0 h 1 m 1,0 h 1 m 1,0 h 1 m 3,0 h 5 m 4,0 h 1 m 8,0 h 4 m 1,0 h 4 m 1,0 h 1 m 1,0 h 1 m 1,0 h 2 m 1,0 h 6 M 6,61 h 1 m 3,0 h 1 m 4,0 h 3 m 1,0 h 3 m 1,0 h 3 m 1,0 h 3 m 1,0 h 1 m 1,0 h 2 m 1,0 h 1 m 1,0 h 8 m 1,0 h 1 m 3,0 h 2 m 2,0 h 1 m 5,0 h 4 m 3,0 h 1 m 2,0 h 1 m 1,0 h 1 m 6,0 h 1 M 5,62 h 3 m 4,0 h 1 m 2,0 h 2 m 1,0 h 5 m 1,0 h 3 m 1,0 h 4 m 1,0 h 2 m 1,0 h 1 m 1,0 h 3 m 4,0 h 1 m 1,0 h 1 m 3,0 h 2 m 2,0 h 1 m 4,0 h 5 m 1,0 h 2 m 4,0 h 1 m 8,0 h 1 m 5,0 h 5 M 5,63 h 2 m 1,0 h 1 m 1,0 h 2 m 2,0 h 3 m 1,0 h 5 m 1,0 h 4 m 1,0 h 2 m 1,0 h 3 m 2,0 h 2 m 1,0 h 1 m 4,0 h 3 m 3,0 h 2 m 2,0 h 2 m 1,0 h 1 m 1,0 h 6 m 1,0 h 1 m 4,0 h 1 m 1,0 h 5 m 1,0 h 2 m 1,0 h 3 m 1,0 h 3"
           id="path11" /><path
           stroke="#c3c9ac"
           d="m 45,13 h 3 m -4,1 h 1 m -4,1 h 1 m 6,0 h 3 m -16,1 h 2 m 8,0 h 3 m 3,0 h 1 m -19,1 h 2 m 7,0 h 3 m 3,0 h 2 m 2,0 h 3 m -23,1 h 1 m 8,0 h 1 m 8,0 h 1 m 4,0 h 1 m -25,1 h 1 m 7,0 h 2 m 10,0 h 2 m 3,0 h 1 m -27,1 h 1 m 6,0 h 2 m 14,0 h 1 m 3,0 h 1 m -29,1 h 1 m 6,0 h 1 m 17,0 h 1 m 3,0 h 1 M 5,22 h 1 m 2,0 h 1 m 18,0 h 2 m 1,0 h 1 m 3,0 h 2 m 10,0 h 1 m 8,0 h 1 m 2,0 h 1 M 6,23 h 1 m 12,0 h 1 m 1,0 h 1 m 3,0 h 2 m 2,0 h 1 m 3,0 h 1 m 10,0 h 1 m 11,0 h 1 m 2,0 h 1 M 7,24 h 1 m 1,0 h 2 m 6,0 h 2 m 4,0 h 2 m 2,0 h 2 m 3,0 h 1 m 10,0 h 1 m 7,0 h 1 m 4,0 h 1 m 2,0 h 1 M 8,25 h 1 m 2,0 h 3 m 8,0 h 1 m 3,0 h 1 m 4,0 h 1 m 10,0 h 1 m 3,0 h 1 m 5,0 h 1 m 4,0 h 1 m 1,0 h 1 M 5,26 h 1 m 3,0 h 2 m 3,0 h 2 m 1,0 h 3 m 4,0 h 2 m 4,0 h 1 m 11,0 h 1 m 2,0 h 1 m 3,0 h 1 m 3,0 h 1 m 1,0 h 1 m 1,0 h 1 m 1,0 h 1 M 6,27 h 1 m 4,0 h 3 m 9,0 h 1 m 5,0 h 1 m 12,0 h 1 m 2,0 h 1 m 3,0 h 1 m 3,0 h 1 m 1,0 h 1 m 2,0 h 1 M 5,28 h 1 m 1,0 h 1 m 7,0 h 1 m 1,0 h 2 m 8,0 h 2 m 11,0 h 1 m 1,0 h 1 m 3,0 h 1 m 3,0 h 1 m 2,0 h 1 m 4,0 h 1 M 8,29 h 1 m 17,0 h 1 m 13,0 h 1 m 1,0 h 1 m 5,0 h 1 m 3,0 h 1 m 1,0 h 1 m 3,0 h 1 M 5,30 h 1 m 3,0 h 2 m 13,0 h 2 m 14,0 h 1 m 2,0 h 1 m 14,0 h 1 M 6,31 h 1 m 4,0 h 5 m 2,0 h 1 m 4,0 h 1 m 2,0 h 1 m 13,0 h 1 m 2,0 h 1 m 13,0 h 1 M 5,32 h 1 m 1,0 h 1 m 16,0 h 2 m 14,0 h 1 m 2,0 h 1 m 12,0 h 1 m 8,0 h 4 M 8,33 h 1 m 6,0 h 2 m 6,0 h 1 m 16,0 h 1 m 3,0 h 2 m 8,0 h 2 m 7,0 h 2 m 4,0 h 1 M 9,34 h 2 m 29,0 h 1 m 5,0 h 8 m 7,0 h 2 m 6,0 h 1 m -57,1 h 1 m 27,0 h 1 m 18,0 h 1 m 9,0 h 1 m -59,1 h 1 m 28,0 h 1 m 17,0 h 1 m 10,0 h 1 m -29,1 h 1 m 14,0 h 2 m 5,0 h 2 m 4,0 h 1 m -28,1 h 2 m 11,0 h 1 m 6,0 h 1 m 2,0 h 1 m 3,0 h 1 m -59,1 h 1 m 32,0 h 2 m 7,0 h 2 m 6,0 h 1 m 6,0 h 1 m -23,1 h 7 m 8,0 h 1 m 6,0 h 1 m -8,1 h 2 m 4,0 h 1 m -6,1 h 5"
           id="path12" /><path
           stroke="#202e37"
           d="m 19,17 h 1 m -1,1 h 1 m -1,1 h 1 m -1,1 h 1 m -1,1 h 1 m -1,1 h 1 m -1,7 h 1 m -1,1 h 1 m 2,6 h 1 m -3,1 h 1 m 1,0 h 1 m -3,1 h 2 m -2,1 h 1 m -1,1 h 1 m -1,1 h 1 m -1,1 h 1 m -4,1 h 1 m 0,1 h 1 m -1,1 h 1 m -3,1 h 1 m 1,0 h 1 m 8,0 h 1 m 2,0 h 1 m -15,1 h 1 m 1,0 h 1 m 8,0 h 1 m 1,0 h 1 m -14,1 h 1 m 2,0 h 1 m 6,0 h 1 m 2,0 h 1 m -14,1 h 1 m 7,0 h 1 m 1,0 h 1 m 2,0 h 1 m -5,1 h 2 m 1,0 h 1 m 1,0 h 1 m -6,1 h 1 m 1,0 h 1 m 3,0 h 1 m -7,1 h 1 m 1,0 h 1 m -5,1 h 1 m 2,0 h 1 m -4,1 h 1 m 3,2 h 1 m -4,1 h 1 m 3,0 h 1 m -4,1 h 1 m 2,0 h 1 m -8,1 h 1 m 8,0 h 1 m -9,1 h 1 m 7,0 h 1 m 2,0 h 1 m -16,1 h 1 m 3,0 h 1 m 9,0 h 1 m -16,1 h 1 m 5,0 h 1 m 8,0 h 1 m -10,1 h 1"
           id="path13" /><path
           stroke="#274248"
           d="m 20,43 h 1 m -1,1 h 1 m 0,1 h 1 m -1,1 h 1 m -1,1 h 1 m 0,1 h 1 m -4,1 h 1 m -1,1 h 1 m 0,1 h 1 m -1,1 h 1 m 4,2 h 1 m 1,0 h 1 m 3,0 h 1 m -8,1 h 1 m 2,0 h 1 m 3,0 h 1 m -8,1 h 1 m 6,0 h 1 m -2,1 h 1 m -1,1 h 1 m -3,1 h 1 m 0,1 h 1 m 0,1 h 1"
           id="path14" /><path
           stroke="#a19937"
           d="m 62,44 h 4 m -8,2 h 3 m -22,1 h 3 m 11,0 h 2 m -19,1 h 3 m 12,0 h 3 m -13,1 h 1 m 2,0 h 1 m -10,2 h 2 m 39,7 h 1 m 6,0 h 1 m -34,3 h 1 m 18,1 h 1 m -27,1 h 1"
           id="path15" /><path
           stroke="#2b2e24"
           d="m 85,48 h 3 m 0,1 h 4 m -7,1 h 2 m 2,0 h 2 m -34,1 h 2 m 28,0 h 2 m -34,1 h 2 m 2,0 h 2 m 9,0 h 1 m 11,0 h 5 m 2,0 h 3 m -38,1 h 3 m 2,0 h 1 m 15,0 h 3 m 2,0 h 1 m 1,0 h 4 m 1,0 h 4 m -38,1 h 3 m 11,0 h 1 m 1,0 h 1 m 3,0 h 1 m 2,0 h 1 m 6,0 h 2 m -33,1 h 1 m 12,0 h 2 m 3,0 h 3 m 2,0 h 1 m 1,0 H 87 M 5,56 h 1 m 35,0 h 4 m 3,0 h 1 m 5,0 h 1 m 10,0 h 1 m 2,0 h 2 m 6,0 h 1 m 4,0 h 1 m 3,0 h 1 m 2,0 h 1 M 5,57 h 2 m 32,0 h 3 m 2,0 h 4 m 1,0 h 3 m 13,0 h 2 m 9,0 h 1 m 2,0 h 1 m 3,0 h 1 m 2,0 h 1 M 6,58 h 3 m 4,0 h 4 m 21,0 h 2 m 6,0 h 3 m 11,0 h 2 m 2,0 h 1 m 8,0 h 2 m 4,0 h 2 m 7,0 h 1 m 2,0 h 1 M 9,59 h 2 m 1,0 h 3 m 32,0 h 1 m 1,0 h 1 m 1,0 h 2 m 5,0 h 3 m 1,0 h 1 m 5,0 h 3 m 1,0 h 3 m 1,0 h 1 m 2,0 h 2 m 2,0 h 1 m 4,0 h 2 m -48,1 h 1 m 1,0 h 1 m 1,0 h 1 m 2,0 h 2 m 5,0 h 1 m 1,0 h 2 m 4,0 h 5 m 4,0 h 1 m 6,0 h 1 M 5,61 h 1 m 5,0 h 3 m 23,0 h 1 m 8,0 h 1 m 1,0 h 2 m 3,0 h 2 m 1,0 h 1 m 8,0 h 3 m 1,0 h 2 m 1,0 h 1 m 1,0 h 4 m 1,0 h 1 m 2,0 h 3 m 1,0 h 6 M 8,62 h 2 m 1,0 h 1 m 1,0 h 1 m 23,0 h 1 m 3,0 h 4 m 1,0 h 1 m 2,0 h 2 m 2,0 h 2 m 1,0 h 2 m 7,0 h 1 m 2,0 h 1 m 1,0 h 2 m 1,0 h 4 m 5,0 h 2 M 7,63 h 1 m 1,0 h 1 m 2,0 h 1 m 23,0 h 1 m 2,0 h 1 m 1,0 h 2 m 1,0 h 1 m 3,0 h 3 m 3,0 h 1 m 2,0 h 1 m 8,0 h 1 m 1,0 h 4 m 1,0 h 1 m 5,0 h 1 m 2,0 h 1 m 3,0 h 1 m 3,0 h 2"
           id="path16" /><path
           stroke="#144d75"
           d="m 28,49 h 1 m -3,2 h 1 m -1,1 h 1"
           id="path17" /><path
           stroke="#0b0f11"
           d="m 77,56 h 1 m 3,1 h 1 m 2,2 h 1 m 2,0 h 1 m -10,1 h 1 m 3,0 h 1 m 2,0 h 1 m -5,1 h 1 m 3,0 h 1 m -6,1 h 1 m 4,0 h 2"
           id="path18" /><path
           stroke="#313931"
           d="m 78,56 h 2 m 6,0 h 2 m -10,1 h 1 m 6,0 h 1 m -8,1 h 1 m 3,0 h 1 m 2,0 h 1 m -8,1 h 1 m 3,0 h 1 m 2,0 h 2 m -9,2 h 1 m -2,1 h 3 m 4,0 h 1"
           id="path19" /><path
           stroke="#4a4b74"
           d="m 80,56 h 1"
           id="path20" /><path
           stroke="#191a54"
           d="m 48,60 h 1"
           id="path21" /></g></g><g
       id="g4"
       transform="matrix(2.6453657,0,0,2.6453657,-2.6644039,-4.6285648)"><g
         style="shape-rendering:crispEdges"
         id="g2"
         transform="matrix(0.26458333,0,0,0.26458333,1.6193384,4.4360024)"><path
           stroke="#47436e"
           d="m 0,0 h 3 m 9,0 h 3 m 8,0 h 2 m 11,0 h 1 m 1,0 h 1 m 1,0 h 8 m 1,0 h 12 m 1,0 h 4 m 1,0 h 2 m 15,0 h 2 M 0,1 h 1 m 1,0 h 1 m 9,0 h 1 m 1,0 h 1 m 9,0 h 1 m 12,0 h 1 m 1,0 h 8 m 1,0 h 2 m 3,0 h 1 m 1,0 h 6 m 1,0 h 2 m 1,0 h 1 m 2,0 h 2 m 16,0 h 1 M 0,2 h 1 m 1,0 h 1 m 9,0 h 1 m 1,0 h 2 m 5,0 h 1 m 2,0 h 2 m 12,0 h 2 m 1,0 h 2 m 1,0 h 5 m 5,0 h 1 m 1,0 h 4 m 1,0 h 2 m 1,0 h 2 m 1,0 h 1 M 1,3 h 2 m 9,0 h 1 m 1,0 h 1 m 1,0 h 1 m 3,0 h 3 m 1,0 h 2 m 4,0 h 1 m 7,0 h 1 m 1,0 h 2 m 1,0 h 5 m 7,0 h 1 m 1,0 h 4 m 1,0 h 1 m 1,0 h 1 m 1,0 h 1 M 0,4 h 2 m 1,0 h 1 m 7,0 h 2 m 1,0 h 1 m 1,0 h 5 m 2,0 h 4 m 1,0 h 3 m 7,0 h 5 m 1,0 h 2 m 1,0 h 1 m 7,0 h 3 m 1,0 h 1 m 1,0 h 1 m 1,0 h 3 M 2,5 h 1 m 1,0 h 1 m 5,0 h 1 m 1,0 h 2 m 2,0 h 7 m 1,0 h 8 m 5,0 h 4 m 1,0 h 2 m 3,0 h 1 m 7,0 h 1 m 2,0 h 1 m 2,0 h 3 m 1,0 h 1 M 0,6 h 1 m 2,0 h 7 m 1,0 h 3 m 2,0 h 17 m 3,0 h 7 m 1,0 h 2 m 1,0 h 1 m 7,0 h 2 m 2,0 h 6 M 1,7 h 1 m 1,0 h 5 m 2,0 h 4 m 2,0 h 15 m 1,0 h 12 m 2,0 h 2 m 1,0 h 1 m 3,0 H 65 M 0,8 h 1 m 1,0 h 2 m 2,0 h 8 m 2,0 h 1 m 5,0 h 4 m 3,0 h 3 m 1,0 h 7 m 3,0 h 4 m 2,0 h 8 m 7,0 h 1 M 1,9 h 5 m 1,0 h 7 m 9,0 h 2 m 3,0 h 1 m 3,0 h 6 m 2,0 h 3 m 7,0 h 1 m 1,0 h 4 M 1,10 h 1 m 1,0 h 1 m 2,0 h 1 m 2,0 h 2 m 1,0 h 1 m 11,0 h 1 m 1,0 h 2 m 1,0 h 3 m 2,0 h 2 m 1,0 h 3 m 11,0 h 1 m 1,0 h 3 M 4,11 h 2 m 1,0 h 2 m 3,0 h 2 m 10,0 h 2 m 2,0 h 1 m 3,0 h 2 m 2,0 h 1 m 15,0 h 1 m 1,0 h 1 M 3,12 h 2 m 1,0 h 1 m 6,0 h 1 m 10,0 h 1 m 1,0 h 2 m 25,0 h 1 m -43,1 h 3 m 11,0 h 1 m 28,0 h 1 M 3,14 h 2 m 4,0 h 4 m 11,0 h 1 m 19,0 h 2 m 8,0 h 1 M 5,15 h 1 m 1,0 h 3 m 2,0 h 2 m 9,0 h 1 m 13,0 h 2 m 1,0 h 1 m 5,0 h 2 m 6,0 h 1 M 6,16 h 1 m 2,0 h 3 m 4,0 h 1 m 5,0 h 1 m 13,0 h 2 m 7,0 h 1 m 1,0 h 2 m 6,0 h 1 m -44,1 h 2 m 20,0 h 3 m 7,0 h 1 m 1,0 h 1 m 8,0 h 1 M 9,18 h 3 m 20,0 h 2 m 1,0 h 1 m 10,0 h 1 m 1,0 h 1 m 7,0 h 1 m -26,1 h 1 m 2,0 h 1 m 21,0 h 1 m 9,0 h 1 m 1,0 h 1 m 2,0 h 1 M 1,20 h 1 m 28,0 h 1 m 2,0 h 1 m 9,0 h 1 m 12,0 h 1 m 10,0 h 1 m 1,0 h 1 m 4,0 h 1 M 2,21 h 1 m 8,0 h 1 m 20,0 h 1 m 10,0 h 1 m 12,0 h 1 m 6,0 h 1 m 1,0 h 2 M 3,22 h 2 m 26,0 h 1 m 11,0 h 1 m 11,0 h 1 m 3,0 h 1 m 7,0 h 2 m 3,0 h 1 m 8,0 h 2 M 4,23 h 5 m 24,0 h 1 m 9,0 h 1 m 11,0 h 1 m 3,0 h 1 m 10,0 h 1 m 14,0 h 2 M 8,24 h 2 m 45,0 h 1 m 11,0 h 1 m 3,0 h 1 m 4,0 h 4 m 5,0 h 1 M 2,25 h 1 m 22,0 h 1 m 4,0 h 1 m 5,0 h 1 m 7,0 h 2 m 5,0 h 1 m 3,0 h 1 m 12,0 h 1 m 11,0 h 2 M 3,26 h 1 m 20,0 h 1 m 1,0 h 1 m 9,0 h 1 m 3,0 h 1 m 13,0 h 1 m 19,0 h 2 m 8,0 h 1 m -62,1 h 1 m 1,0 h 1 m 2,0 h 1 m 12,0 h 1 m 11,0 h 1 m 19,0 h 1 m -52,1 h 1 m 1,0 h 1 m 3,0 h 1 m 8,0 h 1 m 14,0 h 1 m 21,0 h 1 m -54,1 h 3 m 2,0 h 2 m 9,0 h 2 m 21,0 h 2 m 12,0 h 1 m -54,1 h 1 m 1,0 h 1 m 1,0 h 2 m 12,0 h 2 m 17,0 h 2 m 14,0 h 1 m -50,1 h 1 m 15,0 h 5 m 11,0 h 1 m -35,2 h 1 m 19,0 h 2 m 35,0 h 1 m -59,1 h 1 m 30,0 h 1 M 0,35 h 1 m 35,0 h 1 m 2,0 h 1 m 35,0 h 1 M 1,36 h 3 m 1,0 h 1 m 16,0 h 1 m 17,0 h 2 m 32,0 h 1 m 2,0 h 1 m 1,0 h 1 M 2,37 h 3 m 1,0 h 1 m 35,0 h 4 m 4,0 h 2 m 19,0 h 1 m 3,0 h 2 m 1,0 h 1 m 4,0 h 4 M 1,38 h 3 m 1,0 h 1 m 1,0 h 2 m 13,0 h 1 m 25,0 h 1 m 25,0 h 1 m 2,0 h 1 m 4,0 h 1 M 0,39 h 1 m 5,0 h 1 m 14,0 h 1 m 14,0 h 2 m 3,0 h 1 m 4,0 h 2 m 24,0 h 2 m 4,0 h 3 M 7,40 h 2 m 67,0 h 3 M 9,41 h 1 m 64,0 h 4 m -27,1 h 1 m 19,0 h 5 m 7,0 h 4 m -37,1 h 1 m 17,0 h 2 m 9,0 h 1 M 0,44 h 3 m 43,0 h 1 m 9,0 h 5 m 2,0 h 5 m 2,0 h 3 m 4,0 h 1 M 3,45 h 1 m 31,0 h 1 m 17,0 h 2 m 3,0 h 5 m 1,0 h 3 m 2,0 h 1 m 5,0 h 2 m 9,0 h 1 M 1,46 h 1 m 2,0 h 3 m 26,0 h 2 m 8,0 h 2 m 1,0 h 2 m 2,0 h 1 m 4,0 h 5 m 8,0 h 1 M 0,47 h 4 m 26,0 h 3 m 8,0 h 2 m 2,0 h 1 m 3,0 h 1 m 7,0 h 2 m 3,0 h 3 m 1,0 h 2 M 2,48 h 7 m 20,0 h 2 m 2,0 h 1 m 9,0 h 2 m 2,0 h 2 m 7,0 h 2 m 6,0 h 2 m 1,0 h 1 m 18,0 h 1 m -52,1 h 5 m 6,0 h 2 m 5,0 h 5 m 8,0 h 1 m 2,0 h 2 m 2,0 h 2 m 8,0 h 4 M 1,50 h 1 m 5,0 h 5 m 22,0 h 3 m 3,0 h 7 m 4,0 h 4 m 27,0 h 2 m 2,0 h 1 M 2,51 h 8 m 22,0 h 3 m 32,0 h 1 m 1,0 h 1 M 4,52 h 4 m 24,0 h 1 m 14,0 h 8 m 10,0 h 1 m 3,0 h 1 m 5,0 h 1 m -40,1 h 4 m 41,0 h 1 M 0,54 h 1 m 5,0 h 1 m 3,0 h 1 m 24,0 h 1 m 4,0 h 1 m 17,0 h 5 M 1,55 h 1 m 7,0 h 1 m 24,0 h 1 m 17,0 h 1 m 3,0 h 3 M 2,56 h 3 m 47,0 h 3 M 5,57 h 1 m 47,0 h 1 m 0,1 h 1"
           id="path1-2" /><path
           stroke="#5783a6"
           d="m 3,0 h 1 m 7,0 h 1 m 3,0 h 1 m 5,0 h 1 m 3,0 h 1 m 5,0 h 1 m 1,0 h 3 m 12,0 h 1 m 27,0 h 7 M 3,1 h 2 m 6,0 h 1 m 3,0 h 1 m 5,0 h 1 m 3,0 h 1 m 5,0 h 2 m 3,0 h 1 m 10,0 h 1 m 2,0 h 3 m 22,0 h 2 m 5,0 h 3 M 3,2 h 1 m 7,0 h 1 m 4,0 h 1 m 3,0 h 1 m 5,0 h 1 m 3,0 h 2 m 5,0 h 1 m 11,0 h 1 m 3,0 h 1 m 20,0 h 1 m 9,0 h 2 M 3,3 h 1 m 7,0 h 1 m 5,0 h 3 m 7,0 h 3 m 1,0 h 1 m 5,0 h 1 m 10,0 h 1 m 5,0 h 1 m 18,0 h 1 m 11,0 h 2 M 4,4 h 1 m 5,0 h 1 m 20,0 h 1 m 5,0 h 1 m 8,0 h 1 m 1,0 h 1 m 5,0 h 1 m 17,0 h 1 m 13,0 h 1 M 5,5 h 5 m 22,0 h 1 m 3,0 h 1 m 9,0 h 1 m 1,0 h 1 m 5,0 h 1 m 16,0 h 1 M 33,6 h 3 m 13,0 h 1 m 3,0 h 1 m 16,0 h 1 M 48,7 h 1 m 1,0 h 3 m 16,0 h 1 M 17,8 h 5 m 47,0 h 1 M 16,9 h 1 m 5,0 h 1 m 45,0 h 1 m -46,1 h 1 m 34,0 h 3 m 7,0 h 1 m -47,1 h 2 m 10,0 h 2 m 1,0 h 3 m 17,0 h 1 m 3,0 h 1 m 6,0 h 1 m -46,1 h 1 m 8,0 h 2 m 2,0 h 1 m 3,0 h 3 m 13,0 h 1 m 5,0 h 1 m 5,0 h 1 m -46,1 h 1 m 7,0 h 1 m 2,0 h 2 m 1,0 h 3 m 3,0 h 2 m 11,0 h 1 m 5,0 h 1 m 5,0 h 2 m -47,1 h 1 m 5,0 h 2 m 1,0 h 2 m 2,0 h 1 m 4,0 h 2 m 13,0 h 1 m 5,0 h 1 m 4,0 h 1 m 1,0 h 2 m -55,1 h 1 m 5,0 h 1 m 5,0 h 1 m 2,0 h 1 m 2,0 h 2 m 21,0 h 1 m 3,0 h 1 m 8,0 h 1 M 1,16 h 1 m 15,0 h 5 m 5,0 h 1 m 1,0 h 2 m 1,0 h 2 m 22,0 h 1 m 1,0 h 3 m 1,0 h 1 m 8,0 h 1 M 2,17 h 1 m 23,0 h 1 m 1,0 h 1 m 2,0 h 1 m 17,0 h 1 m 7,0 h 1 m 3,0 h 1 m 6,0 h 1 m 3,0 h 1 m 13,0 h 1 M 3,18 h 1 m 14,0 h 2 m 5,0 h 1 m 1,0 h 1 m 1,0 h 2 m 19,0 h 1 m 18,0 h 1 m 3,0 h 1 m 11,0 h 2 M 7,19 h 2 m 7,0 h 2 m 6,0 h 1 m 1,0 h 1 m 1,0 h 1 m 15,0 h 2 m 4,0 h 1 m 8,0 h 1 m 10,0 h 1 m 2,0 h 2 m 9,0 h 2 M 0,20 h 1 m 3,0 h 2 m 16,0 h 2 m 1,0 h 1 m 1,0 h 1 m 18,0 h 1 m 1,0 h 1 m 2,0 h 1 m 9,0 h 1 m 9,0 h 1 m 3,0 h 2 m 5,0 h 3 m 1,0 h 1 M 1,21 h 1 m 4,0 h 3 m 12,0 h 1 m 2,0 h 1 m 1,0 h 1 m 20,0 h 1 m 3,0 h 1 m 6,0 h 1 m 13,0 h 1 m 5,0 h 6 m 1,0 h 1 M 0,22 h 1 m 1,0 h 1 m 16,0 h 2 m 1,0 h 2 m 2,0 h 1 m 20,0 h 1 m 1,0 h 1 m 2,0 h 1 m 5,0 h 1 m 14,0 h 2 m 9,0 h 1 M 1,23 h 1 m 1,0 h 1 m 17,0 h 1 m 4,0 h 1 m 13,0 h 1 m 8,0 h 1 m 2,0 h 1 m 5,0 h 1 m 5,0 h 2 m 3,0 h 1 m 5,0 h 8 M 0,24 h 1 m 1,0 h 1 m 1,0 h 2 m 13,0 h 2 m 6,0 h 1 m 2,0 h 1 m 9,0 h 1 m 7,0 h 1 m 3,0 h 1 m 5,0 h 1 m 2,0 h 3 m 2,0 h 1 m 3,0 h 1 M 1,25 h 1 m 1,0 h 1 m 2,0 h 5 m 1,0 h 2 m 4,0 h 1 m 2,0 h 1 m 6,0 h 2 m 7,0 h 1 m 1,0 h 1 m 1,0 h 1 m 10,0 h 1 m 5,0 h 1 m 8,0 h 1 m 3,0 h 5 M 2,26 h 1 m 1,0 h 2 m 13,0 h 2 m 10,0 h 1 m 1,0 h 1 m 3,0 h 1 m 1,0 h 1 m 2,0 h 2 m 7,0 h 1 m 5,0 h 1 m 2,0 h 4 m 12,0 h 2 M 3,27 h 1 m 2,0 h 6 m 1,0 h 1 m 4,0 h 1 m 12,0 h 1 m 1,0 h 1 m 3,0 h 1 m 1,0 h 2 m 8,0 h 2 m 7,0 h 2 m 4,0 h 1 m 21,0 h 1 M 1,28 h 2 m 1,0 h 2 m 27,0 h 1 m 2,0 h 1 m 1,0 h 1 m 2,0 h 8 m 2,0 h 1 m 4,0 h 2 m 7,0 h 1 m 18,0 h 2 M 0,29 h 1 m 5,0 h 6 m 17,0 h 3 m 1,0 h 1 m 2,0 h 1 m 2,0 h 2 m 8,0 h 2 m 4,0 h 1 m 9,0 h 1 m 16,0 h 2 M 1,30 h 3 m 3,0 h 1 m 26,0 h 1 m 2,0 h 2 m 2,0 h 8 m 5,0 h 1 m 6,0 h 1 m 4,0 h 1 m 10,0 h 6 m 2,0 h 2 M 0,31 h 1 m 3,0 h 1 m 1,0 h 1 m 19,0 h 1 m 1,0 h 5 m 1,0 h 1 m 2,0 h 1 m 1,0 h 1 m 10,0 h 1 m 1,0 h 2 m 5,0 h 2 m 5,0 h 1 m 9,0 h 3 m 4,0 h 3 M 0,32 h 1 m 3,0 h 1 m 1,0 h 1 m 18,0 h 1 m 1,0 h 1 m 5,0 h 1 m 1,0 h 1 m 2,0 h 2 m 2,0 h 1 m 3,0 h 4 m 1,0 h 1 m 4,0 h 1 m 1,0 h 1 m 3,0 h 1 m 3,0 h 1 m 8,0 h 2 m 2,0 h 5 m 2,0 h 1 M 0,33 h 1 m 3,0 h 1 m 1,0 h 1 m 19,0 h 1 m 7,0 h 1 m 1,0 h 1 m 3,0 h 2 m 7,0 h 2 m 4,0 h 1 m 1,0 h 1 m 1,0 h 2 m 1,0 h 1 m 3,0 h 1 m 7,0 h 1 m 2,0 h 3 m 5,0 h 2 M 1,34 h 3 m 2,0 h 1 m 16,0 h 1 m 1,0 h 1 m 9,0 h 1 m 6,0 h 7 m 7,0 h 1 m 1,0 h 1 m 2,0 h 1 m 1,0 h 1 m 1,0 h 1 m 7,0 h 1 m 2,0 h 1 m 5,0 h 4 M 7,35 h 1 m 15,0 h 1 m 1,0 h 1 m 9,0 h 1 m 20,0 h 1 m 1,0 h 1 m 4,0 h 1 m 1,0 h 1 m 5,0 h 1 m 1,0 h 1 m 3,0 h 4 M 8,36 h 4 m 11,0 h 1 m 1,0 h 1 m 9,0 h 1 m 20,0 h 1 m 2,0 h 4 m 1,0 h 1 m 5,0 h 1 m 1,0 h 1 m 2,0 h 1 m -53,1 h 1 m 1,0 h 1 m 9,0 h 1 m 19,0 h 1 m 1,0 h 1 m 5,0 h 1 m 4,0 h 2 m 4,0 h 1 m -50,1 h 1 m 9,0 h 1 m 20,0 h 1 m 1,0 h 4 m 5,0 h 2 m 2,0 h 1 m 1,0 h 1 m -50,1 h 1 m 1,0 h 1 m 7,0 h 1 m 35,0 h 1 m 12,0 h 3 m -59,1 h 1 m 5,0 h 1 m 1,0 h 1 m 15,0 h 9 m 5,0 h 5 m 11,0 h 2 m 3,0 h 1 m -61,1 h 1 m 1,0 h 5 m 1,0 h 1 m 4,0 h 1 m 3,0 h 3 m 4,0 h 1 m 9,0 h 6 m 13,0 h 2 m -41,1 h 3 m 10,0 h 2 m 2,0 h 3 m 16,0 h 3 m -45,1 h 10 m 5,0 h 1 m 23,0 h 3 m -44,1 h 4 m 11,0 h 2 m 25,0 h 1 m 3,0 h 1 m -52,1 h 5 m 4,0 h 5 m 2,0 h 4 m 8,0 h 3 m 14,0 h 2 m -33,1 h 2 m 17,0 h 3 m 7,0 h 2 m 2,0 h 1 m -16,1 h 1 m 13,0 h 1 m -16,1 h 1 m 2,0 h 1 m 7,0 h 1 m -10,1 h 1 m 15,0 h 1 m 4,0 h 1 m -24,1 h 2 m 8,0 h 1 m -14,1 h 5 m 2,0 h 1 m 23,0 h 1 m -29,1 h 1 m -10,1 h 1 m 1,0 h 1 m 12,0 h 1 m 1,0 h 1 m -12,3 h 1 m -13,1 h 1 m 10,0 h 1 m -7,1 h 1"
           id="path2-6" /><path
           stroke="#6d9ba9"
           d="m 4,0 h 1 m 5,0 h 1 m 5,0 h 1 m 1,0 h 1 m 1,0 h 1 m 5,0 h 1 m 3,0 h 1 m 1,0 h 1 m 4,0 h 1 m 1,0 h 1 m 26,0 h 1 m 2,0 h 2 m 1,0 h 2 M 17,1 h 1 m 1,0 h 1 m 7,0 h 1 m 1,0 h 1 m 4,0 h 1 m 3,0 h 1 m 15,0 h 1 m 9,0 h 1 m 1,0 h 2 m 2,0 h 2 m 2,0 h 1 m 3,0 h 2 M 4,2 h 1 m 5,0 h 1 m 7,0 h 1 m 9,0 h 1 m 4,0 h 1 m 1,0 h 1 m 15,0 h 2 m 2,0 h 1 m 7,0 h 1 m 2,0 h 1 m 2,0 h 1 m 3,0 h 1 m 1,0 h 9 M 5,3 h 1 m 3,0 h 1 m 22,0 h 1 m 3,0 h 1 m 12,0 h 2 m 1,0 h 1 m 3,0 h 1 m 6,0 h 1 m 1,0 h 1 m 2,0 h 1 m 1,0 h 1 m 1,0 h 1 m 1,0 H 85 M 6,4 h 3 m 24,0 h 1 m 1,0 h 1 m 13,0 h 1 m 3,0 h 1 m 4,0 h 1 m 3,0 h 1 m 3,0 h 2 m 1,0 h 1 m 1,0 h 1 m 1,0 h 3 m 6,0 h 4 M 34,5 h 1 m 6,0 h 1 m 8,0 h 1 m 1,0 h 1 m 3,0 h 2 m 1,0 h 2 m 3,0 h 1 m 1,0 h 3 m 1,0 h 1 m 2,0 h 1 m 7,0 h 1 m 2,0 h 3 M 48,6 h 1 m 2,0 h 1 m 2,0 h 1 m 2,0 h 2 m 6,0 h 3 m 1,0 h 1 m 2,0 h 1 m 10,0 h 1 m 1,0 h 2 M 0,7 h 1 m 64,0 h 2 m 1,0 h 1 m 1,0 h 2 m 12,0 h 1 m 1,0 h 1 M 1,8 h 1 m 2,0 h 2 m 20,0 h 2 m 19,0 h 2 m 10,0 h 4 m 3,0 h 1 m 1,0 h 1 m 2,0 h 1 m 13,0 h 1 M 0,9 h 1 m 5,0 h 1 m 11,0 h 3 m 4,0 h 1 m 20,0 h 4 m 7,0 h 1 m 3,0 h 1 m 3,0 h 1 m 1,0 h 1 m 1,0 h 2 M 2,10 h 1 m 4,0 h 2 m 2,0 h 1 m 1,0 h 1 m 3,0 h 1 m 3,0 h 1 m 18,0 h 3 m 3,0 h 5 m 5,0 h 1 m 4,0 h 2 m 1,0 h 1 m 2,0 h 1 m 2,0 h 1 M 2,11 h 1 m 6,0 h 3 m 4,0 h 1 m 12,0 h 1 m 13,0 h 3 m 1,0 h 5 m 7,0 h 1 m 2,0 h 3 m 1,0 h 1 m 3,0 h 1 M 1,12 h 1 m 7,0 h 2 m 5,0 h 1 m 5,0 h 1 m 22,0 h 2 m 3,0 h 3 m 5,0 h 1 m 1,0 h 1 m 2,0 h 1 m 2,0 h 1 m 3,0 h 1 M 0,13 h 1 m 1,0 h 1 m 2,0 h 1 m 1,0 h 2 m 7,0 h 1 m 5,0 h 1 m 1,0 h 1 m 5,0 h 1 m 1,0 h 2 m 7,0 h 2 m 3,0 h 4 m 1,0 h 3 m 3,0 h 1 m 3,0 h 1 m 4,0 h 2 m 2,0 h 2 M 0,14 h 2 m 3,0 h 2 m 10,0 h 1 m 3,0 h 1 m 6,0 h 1 m 2,0 h 1 m 5,0 h 4 m 7,0 h 3 m 1,0 h 2 m 4,0 h 1 m 1,0 h 1 m 4,0 h 1 m 5,0 h 1 m 14,0 h 1 M 1,15 h 1 m 2,0 h 1 m 1,0 h 1 m 11,0 h 3 m 6,0 h 1 m 1,0 h 2 m 5,0 h 1 m 5,0 h 2 m 1,0 h 1 m 3,0 h 3 m 1,0 h 1 m 1,0 h 1 m 3,0 h 1 m 7,0 h 1 m 1,0 h 1 m 2,0 h 1 m 13,0 h 1 M 2,16 h 1 m 1,0 h 2 m 1,0 h 2 m 17,0 h 1 m 1,0 h 1 m 5,0 h 2 m 14,0 h 3 m 1,0 h 1 m 12,0 h 1 m 1,0 h 2 m 1,0 h 2 m 11,0 h 1 M 5,17 h 1 m 3,0 h 3 m 15,0 h 1 m 4,0 h 2 m 6,0 h 1 m 1,0 h 1 m 5,0 h 1 m 2,0 h 2 m 1,0 h 1 m 1,0 h 1 m 13,0 h 2 m 2,0 h 1 m 9,0 h 1 M 6,18 h 2 m 18,0 h 1 m 4,0 h 1 m 5,0 h 2 m 1,0 h 1 m 4,0 h 1 m 1,0 h 1 m 4,0 h 2 m 1,0 h 1 m 1,0 h 5 m 9,0 h 2 m 1,0 h 2 m 6,0 h 2 M 0,19 h 2 m 12,0 h 1 m 10,0 h 1 m 3,0 h 2 m 5,0 h 2 m 9,0 h 1 m 4,0 h 2 m 1,0 h 1 m 1,0 h 1 m 14,0 h 1 m 3,0 h 8 M 2,20 h 1 m 6,0 h 6 m 9,0 h 1 m 3,0 h 2 m 6,0 h 1 m 1,0 h 1 m 14,0 h 1 m 1,0 h 1 m 1,0 h 1 m 12,0 h 1 m 7,0 h 2 M 3,21 h 1 m 18,0 h 2 m 3,0 h 3 m 5,0 h 2 m 1,0 h 1 m 10,0 h 1 m 3,0 h 1 m 1,0 h 1 m 15,0 h 1 m 1,0 h 1 m 2,0 h 2 M 9,22 h 2 m 1,0 h 2 m 7,0 h 1 m 3,0 h 1 m 1,0 h 4 m 4,0 h 2 m 1,0 h 1 m 15,0 h 1 m 1,0 h 1 m 18,0 h 1 m -58,1 h 3 m 3,0 h 2 m 1,0 h 5 m 2,0 h 1 m 1,0 h 1 m 1,0 h 2 m 10,0 h 1 m 3,0 h 1 m 1,0 h 1 m 11,0 h 1 M 6,24 h 2 m 4,0 h 2 m 4,0 h 1 m 3,0 h 3 m 3,0 h 2 m 4,0 h 1 m 1,0 h 1 m 1,0 h 2 m 4,0 h 1 m 6,0 h 1 m 2,0 h 1 m 1,0 h 1 m 12,0 h 1 m 10,0 h 4 m -62,1 h 2 m 8,0 h 1 m 1,0 h 1 m 5,0 h 1 m 6,0 h 1 m 2,0 h 1 m 3,0 h 1 m 1,0 h 1 m 3,0 h 4 m 1,0 h 1 m -44,1 h 1 m 11,0 h 1 m 6,0 h 1 m 7,0 h 2 m 2,0 h 1 m 1,0 h 1 m 2,0 h 2 m 4,0 h 1 m 1,0 h 1 m 2,0 h 1 m 2,0 h 2 m 4,0 h 2 m -46,1 h 1 m 1,0 h 1 m 5,0 h 7 m 3,0 h 1 m 1,0 h 1 m 10,0 h 1 m 1,0 h 1 m 2,0 h 3 m -50,1 h 1 m 10,0 h 1 m 18,0 h 1 m 6,0 h 4 m 2,0 h 1 m 1,0 h 2 m 1,0 h 2 m 2,0 h 1 m -42,1 h 1 m 16,0 h 2 m 5,0 h 2 m 3,0 h 1 m 2,0 h 1 m 1,0 h 2 m 1,0 h 1 M 9,30 h 3 m 23,0 h 1 m 13,0 h 3 m 4,0 h 2 m 2,0 h 1 m 2,0 h 2 m 3,0 h 1 m 1,0 h 1 m 2,0 h 1 M 1,31 h 1 m 1,0 h 1 m 4,0 h 1 m 3,0 h 1 m 10,0 h 1 m 11,0 h 1 m 2,0 h 1 m 16,0 h 1 m 2,0 h 1 m 2,0 h 1 m 1,0 h 2 m 3,0 h 1 m 1,0 h 1 m 1,0 h 1 M 7,32 h 1 m 20,0 h 4 m 4,0 h 1 m 6,0 h 3 m 8,0 h 1 m 2,0 h 1 m 6,0 h 1 m 5,0 h 1 M 1,33 h 1 m 1,0 h 1 m 3,0 h 1 m 20,0 h 1 m 2,0 h 2 m 2,0 h 1 m 1,0 h 1 m 14,0 h 2 m 10,0 h 1 m 2,0 h 1 m 1,0 h 1 M 4,34 h 1 m 22,0 h 1 m 4,0 h 2 m 2,0 h 4 m 11,0 h 1 m 2,0 h 1 m 5,0 h 1 m 1,0 h 1 m 4,0 h 1 m 1,0 h 1 M 1,35 h 3 m 1,0 h 1 m 2,0 h 1 m 3,0 h 1 m 13,0 h 2 m 6,0 h 1 m 2,0 h 2 m 1,0 h 2 m 7,0 h 3 m 2,0 h 1 m 6,0 h 1 m 4,0 h 1 m 1,0 h 1 M 6,36 h 1 m 19,0 h 1 m 7,0 h 1 m 4,0 h 1 m 2,0 h 9 m 3,0 h 1 m 10,0 h 1 m -40,1 h 1 m 6,0 h 2 m 2,0 h 1 m 8,0 h 3 m 4,0 h 1 m 2,0 h 1 M 9,38 h 2 m 15,0 h 3 m 4,0 h 2 m 3,0 h 2 m 5,0 h 3 m 6,0 h 1 m 2,0 h 1 M 1,39 h 2 m 25,0 h 2 m 2,0 h 1 M 1,40 h 1 m 27,0 h 3 M 3,41 h 2 m 2,0 h 1 m 30,0 h 1 m 8,0 h 1 M 2,42 h 1 m 2,0 h 1 m 1,0 h 2 m 34,0 h 2 M 1,43 h 1 m 4,0 h 1 m 2,0 h 1 m -6,1 h 1 m 2,0 h 1 m 1,0 h 2 m -6,1 h 1 m 2,0 h 2 m 23,0 h 2 M 9,46 h 2 m 21,0 h 1 M 8,47 h 1 m 2,0 h 1 m 28,0 h 1 M 9,48 h 2"
           id="path3-1" /><path
           stroke="#c2c580"
           d="m 5,0 h 2 m 1,0 h 2 m 7,0 h 1 m 1,0 h 1 m 7,0 h 1 m 1,0 h 1 M 5,1 h 1 m 3,0 h 2 m 5,0 h 1 m 1,0 h 1 m 1,0 h 1 m 5,0 h 1 m 1,0 h 1 m 1,0 h 1 m 2,0 h 1 m 1,0 h 1 m 41,0 h 1 m 2,0 h 2 M 5,2 h 2 m 1,0 h 2 m 7,0 h 1 m 1,0 h 1 m 7,0 h 1 m 1,0 h 1 m 2,0 h 1 m 1,0 h 1 m 1,0 h 1 m 13,0 h 1 M 4,3 h 1 m 1,0 h 3 m 1,0 h 1 m 22,0 h 1 m 1,0 h 1 m 15,0 h 1 m 1,0 h 1 M 5,4 h 1 m 3,0 h 1 m 22,0 h 1 m 1,0 h 1 m 1,0 h 1 m 13,0 h 1 m 1,0 h 1 m 23,0 h 6 M 33,5 h 1 m 1,0 h 1 m 13,0 h 1 m 1,0 h 1 m 1,0 h 1 m 18,0 h 1 m 1,0 h 7 m 1,0 h 2 M 50,6 h 1 m 1,0 h 1 m 18,0 h 1 m 1,0 h 4 m 3,0 h 3 m 1,0 h 1 M 72,7 h 3 m 3,0 h 6 m 1,0 h 1 M 70,8 h 1 m 1,0 h 2 m 3,0 h 8 m 1,0 h 1 M 17,9 h 1 m 3,0 h 1 m 49,0 h 2 m 4,0 h 10 m -71,1 h 1 m 1,0 h 3 m 1,0 h 1 m 46,0 h 1 m 1,0 h 2 m 4,0 h 10 m -70,1 h 2 m 1,0 h 2 m 36,0 h 1 m 1,0 h 1 m 8,0 h 1 m 1,0 h 2 m 5,0 h 9 m -70,1 h 1 m 3,0 h 1 m 35,0 h 1 m 1,0 h 1 m 1,0 h 1 m 7,0 h 1 m 1,0 h 3 m 5,0 h 3 m 1,0 h 4 m -70,1 h 2 m 1,0 h 2 m 36,0 h 3 m 11,0 h 2 m 9,0 h 4 m -71,1 h 1 m 1,0 h 3 m 1,0 h 1 m 34,0 h 1 m 1,0 h 1 m 1,0 h 1 m 10,0 h 3 m 7,0 h 4 m -69,1 h 1 m 3,0 h 1 m 36,0 h 1 m 1,0 h 1 m 10,0 h 1 m 1,0 h 3 m 4,0 h 6 m -12,1 h 11 m 1,0 h 1 m -14,1 h 1 m 1,0 h 9 m 1,0 h 1 m -10,1 h 6 m 2,0 h 1 m -10,1 h 1 m 1,1 h 1 m 2,0 h 2 m 3,6 h 2 m -4,1 h 3 m -8,1 h 6 m 2,0 h 1 m -11,1 h 6 m 2,0 h 3 m -12,1 h 2 m 6,0 h 2 M 2,31 h 1 m 6,0 h 3 m 62,0 h 2 m 3,0 h 4 m 3,0 h 1 M 1,32 h 3 m 4,0 h 5 m 19,0 h 1 m 40,0 h 2 m 2,0 h 2 m 5,0 h 2 M 2,33 h 1 m 5,0 h 2 m 1,0 h 2 m 14,0 h 1 m 1,0 h 2 m 2,0 h 1 m 38,0 h 2 m 1,0 h 2 m 4,0 h 4 M 8,34 h 5 m 13,0 h 1 m 1,0 h 4 m 2,0 h 1 m 35,0 h 3 m 1,0 h 2 m 1,0 h 5 M 9,35 h 3 m 16,0 h 2 m 1,0 h 3 m 35,0 h 2 m 1,0 h 1 m 1,0 h 1 m 1,0 h 1 m -50,1 h 2 m 3,0 h 2 m 34,0 h 2 m 1,0 h 1 m 1,0 h 1 m -47,1 h 3 m 1,0 h 2 m 33,0 h 2 m 2,0 h 1 m 1,0 h 2 m -45,1 h 4 m 29,0 h 5 m 2,0 h 2 m 1,0 h 1 M 3,39 h 2 m 22,0 h 1 m 2,0 h 2 m 1,0 h 1 m 17,0 h 6 m 4,0 h 1 m 2,0 h 6 M 0,40 h 1 m 1,0 h 4 m 22,0 h 1 m 3,0 h 1 m 9,0 h 4 m 4,0 h 1 m 9,0 h 5 m 6,0 h 1 M 1,41 h 2 m 2,0 h 2 m 33,0 h 3 m 3,0 h 1 m 1,0 h 2 m 1,0 h 2 m 3,0 h 4 m 6,0 h 3 m 1,0 h 1 M 0,42 h 2 m 1,0 h 2 m 1,0 h 1 m 26,0 h 1 m 3,0 h 3 m 5,0 h 3 m 2,0 h 1 m 4,0 h 2 m 6,0 h 2 M 0,43 h 1 m 1,0 h 1 m 2,0 h 1 m 1,0 h 2 m 21,0 h 1 m 13,0 h 2 m 6,0 h 1 M 6,44 h 1 m 1,0 h 1 m 16,0 h 5 m 7,0 h 2 m 4,0 h 1 m 6,0 h 2 M 7,45 h 1 m 2,0 h 1 m 15,0 h 1 m 5,0 h 1 m 9,0 h 1 m 6,0 h 1 M 7,46 h 2 m 18,0 h 1 m 1,0 h 1 m 5,0 h 2 m 2,0 h 2 M 9,47 h 2 m 17,0 h 1 m 5,0 h 1 m -3,1 h 1 m -4,1 h 3 m -2,1 h 1"
           id="path4-8" /><path
           stroke="#dcaf2e"
           d="m 7,0 h 1 m 20,0 h 1 M 6,1 H 9 M 7,2 h 1 m 26,1 h 1 m 16,1 h 1 m 25,2 h 1 m -3,1 h 3 m -4,1 h 3 m -4,1 h 4 m -4,1 h 4 m -58,1 h 1 m 54,0 h 4 m -60,1 h 3 m 54,0 h 4 m -60,1 h 1 m 56,0 h 6 m -6,1 h 5 m -4,1 h 3 M 10,33 h 1 m 19,2 h 1 m -2,1 h 3 m -2,1 h 1"
           id="path5-7" /><path
           stroke="#1d1e18"
           d="m 22,0 h 1 m -1,1 h 2 m -2,1 h 2 M 0,3 h 1 m 22,0 h 1 m 19,1 h 1 M 0,5 H 2 M 1,6 h 2 m 41,1 h 2 M 7,17 h 2 m 23,2 h 2 m -3,1 h 2 m -3,1 h 2 m 52,3 h 1 m -3,1 h 2 m -59,1 h 1 m -2,1 h 1 m 2,1 h 1"
           id="path6-9" /><path
           stroke="#546496"
           d="m 61,0 h 1 m 9,0 h 1 m 2,0 h 2 m 7,0 h 1 m 2,0 h 1 M 1,1 h 1 m 11,0 h 1 m 47,0 h 1 m 10,0 h 2 m 11,0 h 1 M 1,2 h 1 m 11,0 h 1 m 26,0 h 1 m 2,0 h 1 m 16,0 h 1 m 7,0 h 1 m 1,0 h 3 m 13,0 h 1 M 13,3 h 1 m 12,0 h 1 m 12,0 h 1 m 2,0 h 1 m 18,0 h 1 m 5,0 h 1 m 1,0 h 1 m 1,0 h 1 M 2,4 h 1 m 10,0 h 1 m 7,0 h 2 m 4,0 h 1 m 32,0 h 1 m 7,0 h 1 m 1,0 h 1 M 3,5 h 1 m 7,0 h 1 m 11,0 h 1 m 20,0 h 2 m 23,0 h 1 M 10,6 h 1 m 32,0 h 1 m 2,0 h 1 m 21,0 h 1 M 8,7 h 2 m 21,0 h 1 m 35,0 h 1 M 28,8 h 1 m 3,0 h 1 m 24,0 h 2 m 4,0 h 1 m 1,0 h 1 m 1,0 h 1 M 26,9 h 2 m 1,0 h 3 m 6,0 h 1 m 4,0 h 3 m 5,0 h 1 m 4,0 h 1 m 1,0 h 3 m 1,0 h 3 m 1,0 h 1 M 0,10 h 1 m 3,0 h 2 m 19,0 h 1 m 2,0 h 1 m 3,0 h 2 m 18,0 h 1 m 4,0 h 1 m 5,0 h 1 m 1,0 h 2 M 0,11 h 2 m 1,0 h 1 m 2,0 h 1 m 19,0 h 2 m 25,0 h 1 m 1,0 h 2 m 8,0 h 1 m 1,0 h 1 M 0,12 h 1 m 1,0 h 1 m 2,0 h 1 m 1,0 h 2 m 2,0 h 2 m 12,0 h 1 m 4,0 h 2 m 2,0 h 2 m 18,0 h 2 m 8,0 h 2 m 1,0 h 1 M 1,13 h 1 m 1,0 h 2 m 1,0 h 1 m 2,0 h 2 m 15,0 h 1 m 1,0 h 2 m 10,0 h 1 m 14,0 h 1 m 7,0 h 3 M 2,14 h 1 m 4,0 h 2 m 4,0 h 1 m 11,0 h 1 m 1,0 h 1 m 15,0 h 1 m 11,0 h 1 m 7,0 h 2 m 1,0 h 1 m 1,0 h 1 M 0,15 h 1 m 1,0 h 2 m 6,0 h 2 m 12,0 h 1 m 1,0 h 1 m 12,0 h 1 m 1,0 h 1 m 2,0 h 1 m 11,0 h 1 m 5,0 h 5 m 1,0 h 1 M 0,16 h 1 m 2,0 h 1 m 8,0 h 2 m 9,0 h 1 m 1,0 h 1 m 12,0 h 7 m 1,0 h 1 m 10,0 h 1 m 3,0 h 1 m 1,0 h 4 m 1,0 h 1 M 1,17 h 1 m 2,0 h 1 m 1,0 h 1 m 9,0 h 6 m 2,0 h 1 m 12,0 h 3 m 3,0 h 1 m 1,0 h 1 m 1,0 h 1 m 10,0 h 3 m 1,0 h 6 m 1,0 h 1 M 0,18 h 1 m 1,0 h 1 m 1,0 h 2 m 2,0 h 1 m 3,0 h 2 m 3,0 h 1 m 4,0 h 2 m 12,0 h 1 m 4,0 h 4 m 4,0 h 1 m 12,0 h 7 m 1,0 h 1 M 3,19 h 1 m 2,0 h 1 m 2,0 h 3 m 8,0 h 2 m 13,0 h 1 m 3,0 h 5 m 4,0 h 2 m 8,0 h 1 m 1,0 h 6 m 1,0 h 1 m 1,0 h 1 m 16,0 h 1 m -69,1 h 3 m 13,0 h 2 m 3,0 h 2 m 1,0 h 1 m 1,0 h 2 m 3,0 h 2 m 7,0 h 3 m 1,0 h 5 m 1,0 h 1 m 3,0 h 2 m 11,0 h 1 m -69,1 h 2 m 14,0 h 2 m 4,0 h 1 m 1,0 h 2 m 2,0 h 2 m 10,0 h 1 m 1,0 h 4 m 1,0 h 1 m 2,0 h 4 m 3,0 h 2 m 8,0 h 1 m 1,0 h 1 M 5,22 h 1 m 26,0 h 3 m 4,0 h 1 m 1,0 h 2 m 2,0 h 2 m 4,0 h 1 m 5,0 h 1 m 2,0 h 7 m 2,0 h 3 m 4,0 h 5 m 2,0 h 1 m 1,0 h 2 M 9,23 h 1 m 22,0 h 1 m 9,0 h 1 m 1,0 h 1 m 1,0 h 2 m 3,0 h 1 m 5,0 h 1 m 2,0 h 4 m 2,0 h 2 m 3,0 h 4 m 8,0 h 2 M 1,24 h 1 m 8,0 h 1 m 14,0 h 2 m 4,0 h 3 m 7,0 h 2 m 2,0 h 2 m 3,0 h 1 m 6,0 h 1 m 1,0 h 2 m 3,0 h 2 m 2,0 h 1 m 3,0 h 4 m 10,0 h 1 m -63,1 h 1 m 1,0 h 2 m 3,0 h 1 m 1,0 h 1 m 8,0 h 2 m 2,0 h 1 m 1,0 h 2 m 7,0 h 1 m 1,0 h 1 m 4,0 h 1 m 1,0 h 1 m 2,0 h 2 m 5,0 h 4 m 4,0 h 3 M 0,26 h 1 m 22,0 h 1 m 3,0 h 4 m 1,0 h 1 m 11,0 h 5 m 7,0 h 1 m 8,0 h 1 m 1,0 h 2 m 1,0 h 2 m 8,0 h 4 M 1,27 h 1 m 2,0 h 2 m 15,0 h 2 m 3,0 h 2 m 1,0 h 2 m 1,0 h 1 m 22,0 h 3 m 8,0 h 1 m 1,0 h 2 m 4,0 h 9 M 0,28 h 1 m 5,0 h 4 m 9,0 h 3 m 3,0 h 2 m 2,0 h 4 m 21,0 h 2 m 11,0 h 1 m 2,0 h 1 m 2,0 h 1 m 2,0 h 2 M 1,29 h 3 m 15,0 h 2 m 3,0 h 2 m 2,0 h 1 m 3,0 h 1 m 20,0 h 2 m 7,0 h 1 m 4,0 h 1 m 2,0 h 1 m 1,0 h 2 m 1,0 h 1 M 0,30 h 1 m 3,0 h 3 m 12,0 h 2 m 1,0 h 1 m 1,0 h 1 m 2,0 h 7 m 18,0 h 2 m 8,0 h 1 m 4,0 h 1 m 1,0 h 1 m 1,0 h 2 M 5,31 h 1 m 14,0 h 3 m 1,0 h 1 m 2,0 h 1 m 5,0 h 1 m 6,0 h 1 m 5,0 h 4 m 1,0 h 1 m 4,0 h 1 m 5,0 h 1 m 4,0 h 1 m 1,0 h 1 m 1,0 h 1 m 1,0 h 1 M 5,32 h 1 m 14,0 h 5 m 1,0 h 1 m 7,0 h 1 m 5,0 h 2 m 8,0 h 1 m 4,0 h 1 m 5,0 h 1 m 1,0 h 1 m 3,0 h 3 m 1,0 h 2 M 5,33 h 1 m 14,0 h 3 m 1,0 h 2 m 16,0 h 1 m 2,0 h 4 m 5,0 h 1 m 1,0 h 1 m 6,0 h 1 m 4,0 h 1 m 1,0 h 2 M 0,34 h 1 m 4,0 h 1 m 14,0 h 2 m 2,0 h 1 m 27,0 h 1 m 2,0 h 1 m 3,0 h 1 m 6,0 h 1 m 1,0 h 1 m 17,0 h 1 M 4,35 h 1 m 1,0 h 1 m 14,0 h 2 m 1,0 h 1 m 27,0 h 2 m 1,0 h 1 m 3,0 h 2 m 1,0 h 1 m 4,0 h 1 m 13,0 h 2 M 0,36 h 1 m 3,0 h 1 m 2,0 h 1 m 13,0 h 1 m 2,0 h 1 m 11,0 h 3 m 12,0 h 3 m 1,0 h 1 m 10,0 h 2 m 8,0 h 1 m 1,0 h 1 M 1,37 h 1 m 3,0 h 1 m 1,0 h 5 m 9,0 h 2 m 1,0 h 1 m 11,0 h 1 m 1,0 h 4 m 7,0 h 1 m 2,0 h 1 m 1,0 h 1 m 9,0 h 2 m 11,0 h 1 m 1,0 h 2 M 0,38 h 1 m 3,0 h 1 m 1,0 h 1 m 14,0 h 1 m 1,0 h 2 m 11,0 h 2 m 2,0 h 5 m 4,0 h 5 m 1,0 h 1 m 19,0 h 2 M 5,39 h 1 m 1,0 h 4 m 11,0 h 2 m 1,0 h 1 m 9,0 h 1 m 2,0 h 3 m 1,0 h 4 m 2,0 h 3 m 11,0 h 2 m 7,0 h 1 m 2,0 h 2 M 6,40 h 1 m 2,0 h 2 m 10,0 h 6 m 7,0 h 1 m 1,0 h 6 m 4,0 h 4 m 20,0 h 1 m 1,0 h 2 M 0,41 h 1 m 7,0 h 1 m 1,0 h 1 m 9,0 h 2 m 1,0 h 2 m 2,0 h 1 m 5,0 h 1 m 1,0 h 3 m 31,0 h 1 m 1,0 h 2 M 9,42 h 2 m 9,0 h 2 m 1,0 h 1 m 1,0 h 8 m 19,0 h 1 m 7,0 h 3 m 2,0 h 6 M 3,43 h 2 m 5,0 h 1 m 9,0 h 1 m 1,0 h 2 m 1,0 h 5 m 21,0 h 1 m 1,0 h 2 m 6,0 h 2 M 3,44 h 1 m 1,0 h 1 m 14,0 h 1 m 1,0 h 1 m 7,0 h 2 m 8,0 h 3 m 1,0 h 2 m 3,0 h 1 m 2,0 h 1 M 0,45 h 3 m 1,0 h 1 m 1,0 h 1 m 15,0 h 1 m 18,0 h 1 m 5,0 h 2 M 0,46 h 1 m 1,0 h 2 m 24,0 h 1 m 8,0 h 2 m 6,0 h 1 m 2,0 h 1 M 4,47 h 4 m 21,0 h 1 m 3,0 h 1 m 1,0 h 2 m 2,0 h 1 m 3,0 h 2 m 1,0 h 1 M 0,48 h 2 m 9,0 h 1 m 16,0 h 1 m 2,0 h 1 m 2,0 h 1 m 6,0 h 2 m 2,0 h 1 M 0,49 h 7 m 25,0 h 2 m -3,1 h 1"
           id="path7-2" /><path
           stroke="#1f302f"
           d="m 15,3 h 1 m -1,1 h 1 m -2,1 h 2 m -2,1 h 2 m -2,1 h 2 m -2,1 h 2 m -2,1 h 2 m -2,1 h 2 m -2,1 h 2 m -1,1 h 1 m -1,1 h 1 m -1,1 h 1 m -1,1 h 1 m -1,1 h 1 m -1,1 h 1 m -1,1 h 1 m -1,1 h 1 m -1,1 h 2 m -2,1 h 2 m -6,1 h 1 m 2,0 h 1 m 2,0 h 1 m -7,1 h 1 m 2,0 h 1 m 2,0 h 1 m -7,1 h 1 m 5,0 h 1 m -7,1 h 1 m 5,0 h 1 m -7,1 h 2 m 1,0 h 1 m 2,0 h 1 m -6,1 h 1 m 1,0 h 1 m 2,0 h 1 m -6,1 h 2 m -2,1 h 1 m 5,0 h 1 m -7,1 h 1 m 0,1 h 1 m 5,0 h 1 m -7,1 h 1 m 5,0 h 1 m -7,1 h 1 m 5,0 h 1 m -7,1 h 1 m 5,0 h 1 m -7,1 h 1 m 6,0 h 1 m -9,1 h 1 m 7,0 h 1 m -9,1 h 1 m 7,0 h 1 m -10,1 h 1 m 8,0 h 1 m -10,1 h 1 m 8,0 h 1 m -10,1 h 1 m 8,0 h 1 m -2,1 h 1 m -1,1 h 1 m -1,1 h 1 m -9,2 h 1 m -1,1 h 1 m 0,1 h 1 m 14,0 h 1 m -16,1 h 1 m 14,0 h 1 m -16,1 h 1 m 1,0 h 1 m 13,0 h 1 m -17,1 h 1 m 1,0 h 1 m 14,0 h 1 m -18,1 h 1 m 1,0 h 1 m 15,0 h 1 m -19,1 h 1 m 2,0 h 1 m 14,0 h 1 m -19,1 h 1 m 2,0 h 1 m 14,0 h 1 m -20,1 h 1 m 18,0 h 1 m -21,1 h 1 m 8,0 h 2 m 9,0 h 1 M 9,56 h 1 m 11,0 h 1 m 8,0 h 1 M 9,57 h 1 m 12,0 h 1 m 7,0 h 1 M 8,58 h 1 m 3,0 h 1 m 10,0 h 1 m 2,0 h 1 m 3,0 h 1"
           id="path8-0" /><path
           stroke="#dda127"
           d="m 78,6 h 2 m -7,5 h 1 m 0,1 h 1 m 7,0 h 1 m -9,1 h 2 m 6,0 h 1 m -8,1 h 1 m 5,0 h 1 m -6,1 h 1"
           id="path9-2" /><path
           stroke="#000000"
           d="m 2,7 h 1 m 31,11 h 1 m -20,4 h 2 m -2,1 h 2 m -2,1 h 2 m -2,1 h 2 m -2,1 h 2 m -2,1 h 2 m -3,1 h 4 m -5,1 h 5 m -5,1 h 6 m -5,1 h 3 m 1,0 h 1 m -5,1 h 1 m 1,0 h 1 m 1,0 h 1 m -5,1 h 1 m 2,0 h 2 m -5,1 h 1 m 1,0 h 3 m -5,1 h 1 m 1,0 h 4 m 63,0 h 4 m -74,1 h 2 m 1,0 h 4 m 60,0 h 7 M 0,37 h 1 m 12,0 h 2 m 1,0 h 4 m 61,0 h 2 m -70,1 h 2 m 1,0 h 4 m 58,0 h 4 m 1,0 h 4 m -75,1 h 1 m 1,0 h 1 m 1,0 h 4 m 56,0 h 2 m 3,0 h 2 m 3,0 h 1 m -75,1 h 1 m 1,0 h 2 m 1,0 h 3 m 54,0 h 2 m 3,0 h 2 m 2,0 h 3 m -74,1 h 1 m 1,0 h 2 m 1,0 h 2 m 54,0 h 1 m 4,0 h 1 m 2,0 h 6 m -75,1 h 1 m 1,0 h 2 m 1,0 h 2 m 60,0 h 4 m -71,1 h 2 m 1,0 h 2 m 1,0 h 1 m 36,0 h 6 m 2,0 h 5 m 2,0 h 3 m 3,0 h 3 m 4,0 h 4 m -75,1 h 2 m 1,0 h 4 m 34,0 h 3 m 5,0 h 2 m 5,0 h 2 m 3,0 h 1 m 1,0 h 2 m 2,0 h 4 m -71,1 h 2 m 1,0 h 5 m 4,0 h 1 m 25,0 h 3 m 10,0 h 1 m 3,0 h 2 m 1,0 h 2 m 2,0 h 1 m 2,0 h 3 m 2,0 h 2 m -72,1 h 3 m 1,0 h 4 m 3,0 h 3 m 23,0 h 1 m 1,0 h 1 m 2,0 h 1 m 8,0 h 5 m 1,0 h 1 m 2,0 h 2 m 1,0 h 7 m 2,0 h 3 m -74,1 h 2 m 1,0 h 4 m 3,0 h 4 m 10,0 h 2 m 8,0 h 2 m 3,0 h 2 m 2,0 h 1 m 3,0 h 2 m 6,0 h 5 m 1,0 h 3 m 5,0 h 2 m -71,1 h 5 m 1,0 h 2 m 1,0 h 5 m 8,0 h 6 m 5,0 h 1 m 5,0 h 2 m 1,0 h 1 m 3,0 h 2 m 1,0 h 2 m 2,0 h 1 m 1,0 h 1 m 4,0 h 2 m 1,0 h 1 m 4,0 h 1 M 7,49 h 5 m 1,0 h 1 m 1,0 h 3 m 1,0 h 1 m 1,0 h 1 m 1,0 h 3 m 1,0 h 1 m 6,0 h 1 m 5,0 h 6 m 5,0 h 2 m 5,0 h 2 m 1,0 h 1 m 1,0 h 1 m 1,0 h 1 m 1,0 h 1 m 4,0 h 1 m 2,0 h 1 m 1,0 h 1 m 2,0 h 1 m 1,0 h 1 M 0,50 h 1 m 1,0 h 5 m 6,0 h 1 m 1,0 h 4 m 1,0 h 2 m 1,0 h 3 m 1,0 h 2 m 3,0 h 2 m 3,0 h 3 m 8,0 h 3 m 4,0 h 3 m 4,0 h 3 m 4,0 h 1 m 1,0 h 1 m 12,0 h 2 M 1,51 h 1 m 8,0 h 2 m 1,0 h 1 m 1,0 h 4 m 1,0 h 2 m 1,0 h 3 m 1,0 h 3 m 1,0 h 1 m 3,0 h 1 m 4,0 h 3 m 1,0 h 5 m 1,0 h 5 m 6,0 h 1 m 3,0 h 2 m 1,0 h 1 m 1,0 h 1 m 6,0 h 3 m 4,0 h 2 M 2,52 h 2 m 4,0 h 4 m 1,0 h 2 m 1,0 h 3 m 1,0 h 3 m 1,0 h 1 m 1,0 h 4 m 1,0 h 1 m 1,0 h 1 m 3,0 h 2 m 4,0 h 1 m 11,0 h 3 m 1,0 h 1 m 2,0 h 3 m 1,0 h 3 m 1,0 h 1 m 1,0 h 1 m 4,0 h 1 m 1,0 h 1 m 2,0 h 5 M 0,53 h 1 m 3,0 h 4 m 5,0 h 2 m 1,0 h 4 m 1,0 h 2 m 1,0 h 1 m 1,0 h 4 m 1,0 h 2 m 2,0 h 1 m 4,0 h 1 m 3,0 h 5 m 1,0 h 1 m 1,0 h 3 m 2,0 h 2 m 1,0 h 4 m 1,0 h 1 m 1,0 h 1 m 2,0 h 1 m 1,0 h 1 m 3,0 h 1 m 2,0 h 1 m 2,0 h 1 m 1,0 h 2 M 1,54 h 3 m 8,0 h 4 m 1,0 h 6 m 1,0 h 1 m 1,0 h 4 m 1,0 h 4 m 1,0 h 4 m 1,0 h 1 m 1,0 h 1 m 1,0 h 1 m 2,0 h 5 m 3,0 h 1 m 9,0 h 1 m 3,0 h 1 m 1,0 h 1 m 3,0 h 1 m 8,0 h 2 M 0,55 h 1 m 1,0 h 7 m 2,0 h 6 m 1,0 h 1 m 2,0 h 3 m 2,0 h 2 m 1,0 h 1 m 1,0 h 3 m 1,0 h 2 m 1,0 h 1 m 1,0 h 1 m 1,0 h 1 m 3,0 h 5 m 4,0 h 1 m 8,0 h 4 m 1,0 h 4 m 1,0 h 1 m 1,0 h 1 m 1,0 h 2 m 1,0 h 6 M 1,56 h 1 m 3,0 h 1 m 4,0 h 3 m 1,0 h 3 m 1,0 h 3 m 1,0 h 3 m 1,0 h 1 m 1,0 h 2 m 1,0 h 1 m 1,0 h 8 m 1,0 h 1 m 3,0 h 2 m 2,0 h 1 m 5,0 h 4 m 3,0 h 1 m 2,0 h 1 m 1,0 h 1 m 6,0 h 1 M 0,57 h 3 m 4,0 h 1 m 2,0 h 2 m 1,0 h 5 m 1,0 h 3 m 1,0 h 4 m 1,0 h 2 m 1,0 h 1 m 1,0 h 3 m 4,0 h 1 m 1,0 h 1 m 3,0 h 2 m 2,0 h 1 m 4,0 h 5 m 1,0 h 2 m 4,0 h 1 m 8,0 h 1 m 5,0 h 5 M 0,58 h 2 m 1,0 h 1 m 1,0 h 2 m 2,0 h 3 m 1,0 h 5 m 1,0 h 4 m 1,0 h 2 m 1,0 h 3 m 2,0 h 2 m 1,0 h 1 m 4,0 h 3 m 3,0 h 2 m 2,0 h 2 m 1,0 h 1 m 1,0 h 6 m 1,0 h 1 m 4,0 h 1 m 1,0 h 5 m 1,0 h 2 m 1,0 h 3 m 1,0 h 3"
           id="path10-3" /><path
           stroke="#c3c9ac"
           d="m 40,8 h 3 m -4,1 h 1 m -4,1 h 1 m 6,0 h 3 m -16,1 h 2 m 8,0 h 3 m 3,0 h 1 m -19,1 h 2 m 7,0 h 3 m 3,0 h 2 m 2,0 h 3 m -23,1 h 1 m 8,0 h 1 m 8,0 h 1 m 4,0 h 1 m -25,1 h 1 m 7,0 h 2 m 10,0 h 2 m 3,0 h 1 m -27,1 h 1 m 6,0 h 2 m 14,0 h 1 m 3,0 h 1 m -29,1 h 1 m 6,0 h 1 m 17,0 h 1 m 3,0 h 1 M 0,17 h 1 m 2,0 h 1 m 18,0 h 2 m 1,0 h 1 m 3,0 h 2 m 10,0 h 1 m 8,0 h 1 m 2,0 h 1 M 1,18 h 1 m 12,0 h 1 m 1,0 h 1 m 3,0 h 2 m 2,0 h 1 m 3,0 h 1 m 10,0 h 1 m 11,0 h 1 m 2,0 h 1 M 2,19 h 1 m 1,0 h 2 m 6,0 h 2 m 4,0 h 2 m 2,0 h 2 m 3,0 h 1 m 10,0 h 1 m 7,0 h 1 m 4,0 h 1 m 2,0 h 1 M 3,20 h 1 m 2,0 h 3 m 8,0 h 1 m 3,0 h 1 m 4,0 h 1 m 10,0 h 1 m 3,0 h 1 m 5,0 h 1 m 4,0 h 1 m 1,0 h 1 M 0,21 h 1 m 3,0 h 2 m 3,0 h 2 m 1,0 h 3 m 4,0 h 2 m 4,0 h 1 m 11,0 h 1 m 2,0 h 1 m 3,0 h 1 m 3,0 h 1 m 1,0 h 1 m 1,0 h 1 m 1,0 h 1 M 1,22 h 1 m 4,0 h 3 m 9,0 h 1 m 5,0 h 1 m 12,0 h 1 m 2,0 h 1 m 3,0 h 1 m 3,0 h 1 m 1,0 h 1 m 2,0 h 1 M 0,23 h 1 m 1,0 h 1 m 7,0 h 1 m 1,0 h 2 m 8,0 h 2 m 11,0 h 1 m 1,0 h 1 m 3,0 h 1 m 3,0 h 1 m 2,0 h 1 m 4,0 h 1 M 3,24 h 1 m 17,0 h 1 m 13,0 h 1 m 1,0 h 1 m 5,0 h 1 m 3,0 h 1 m 1,0 h 1 m 3,0 h 1 M 0,25 h 1 m 3,0 h 2 m 13,0 h 2 m 14,0 h 1 m 2,0 h 1 m 14,0 h 1 M 1,26 h 1 m 4,0 h 5 m 2,0 h 1 m 4,0 h 1 m 2,0 h 1 m 13,0 h 1 m 2,0 h 1 m 13,0 h 1 M 0,27 h 1 m 1,0 h 1 m 16,0 h 2 m 14,0 h 1 m 2,0 h 1 m 12,0 h 1 m 8,0 h 4 M 3,28 h 1 m 6,0 h 2 m 6,0 h 1 m 16,0 h 1 m 3,0 h 2 m 8,0 h 2 m 7,0 h 2 m 4,0 h 1 M 4,29 h 2 m 29,0 h 1 m 5,0 h 8 m 7,0 h 2 m 6,0 h 1 M 8,30 h 1 m 27,0 h 1 m 18,0 h 1 m 9,0 h 1 M 7,31 h 1 m 28,0 h 1 m 17,0 h 1 m 10,0 h 1 m -29,1 h 1 m 14,0 h 2 m 5,0 h 2 m 4,0 h 1 m -28,1 h 2 m 11,0 h 1 m 6,0 h 1 m 2,0 h 1 m 3,0 h 1 M 7,34 h 1 m 32,0 h 2 m 7,0 h 2 m 6,0 h 1 m 6,0 h 1 m -23,1 h 7 m 8,0 h 1 m 6,0 h 1 m -8,1 h 2 m 4,0 h 1 m -6,1 h 5"
           id="path11-7" /><path
           stroke="#202e37"
           d="m 14,12 h 1 m -1,1 h 1 m -1,1 h 1 m -1,1 h 1 m -1,1 h 1 m -1,1 h 1 m -1,7 h 1 m -1,1 h 1 m 2,6 h 1 m -3,1 h 1 m 1,0 h 1 m -3,1 h 2 m -2,1 h 1 m -1,1 h 1 m -1,1 h 1 m -1,1 h 1 m -4,1 h 1 m 0,1 h 1 m -1,1 h 1 m -3,1 h 1 m 1,0 h 1 m 8,0 h 1 m 2,0 h 1 m -15,1 h 1 m 1,0 h 1 m 8,0 h 1 m 1,0 h 1 m -14,1 h 1 m 2,0 h 1 m 6,0 h 1 m 2,0 h 1 m -14,1 h 1 m 7,0 h 1 m 1,0 h 1 m 2,0 h 1 m -5,1 h 2 m 1,0 h 1 m 1,0 h 1 m -6,1 h 1 m 1,0 h 1 m 3,0 h 1 m -7,1 h 1 m 1,0 h 1 m -5,1 h 1 m 2,0 h 1 m -4,1 h 1 m 3,2 h 1 m -4,1 h 1 m 3,0 h 1 m -4,1 h 1 m 2,0 h 1 m -8,1 h 1 m 8,0 h 1 m -9,1 h 1 m 7,0 h 1 m 2,0 h 1 m -16,1 h 1 m 3,0 h 1 m 9,0 h 1 m -16,1 h 1 m 5,0 h 1 m 8,0 h 1 m -10,1 h 1"
           id="path12-5" /><path
           stroke="#274248"
           d="m 15,38 h 1 m -1,1 h 1 m 0,1 h 1 m -1,1 h 1 m -1,1 h 1 m 0,1 h 1 m -4,1 h 1 m -1,1 h 1 m 0,1 h 1 m -1,1 h 1 m 4,2 h 1 m 1,0 h 1 m 3,0 h 1 m -8,1 h 1 m 2,0 h 1 m 3,0 h 1 m -8,1 h 1 m 6,0 h 1 m -2,1 h 1 m -1,1 h 1 m -3,1 h 1 m 0,1 h 1 m 0,1 h 1"
           id="path13-9" /><path
           stroke="#a19937"
           d="m 57,39 h 4 m -8,2 h 3 m -22,1 h 3 m 11,0 h 2 m -19,1 h 3 m 12,0 h 3 m -13,1 h 1 m 2,0 h 1 m -10,2 h 2 m 39,7 h 1 m 6,0 h 1 m -34,3 h 1 m 18,1 h 1 m -27,1 h 1"
           id="path14-2" /><path
           stroke="#2b2e24"
           d="m 80,43 h 3 m 0,1 h 4 m -7,1 h 2 m 2,0 h 2 m -34,1 h 2 m 28,0 h 2 m -34,1 h 2 m 2,0 h 2 m 9,0 h 1 m 11,0 h 5 m 2,0 h 3 m -38,1 h 3 m 2,0 h 1 m 15,0 h 3 m 2,0 h 1 m 1,0 h 4 m 1,0 h 4 m -38,1 h 3 m 11,0 h 1 m 1,0 h 1 m 3,0 h 1 m 2,0 h 1 m 6,0 h 2 m -33,1 h 1 m 12,0 h 2 m 3,0 h 3 m 2,0 h 1 m 1,0 H 82 M 0,51 h 1 m 35,0 h 4 m 3,0 h 1 m 5,0 h 1 m 10,0 h 1 m 2,0 h 2 m 6,0 h 1 m 4,0 h 1 m 3,0 h 1 m 2,0 h 1 M 0,52 h 2 m 32,0 h 3 m 2,0 h 4 m 1,0 h 3 m 13,0 h 2 m 9,0 h 1 m 2,0 h 1 m 3,0 h 1 m 2,0 h 1 M 1,53 h 3 m 4,0 h 4 m 21,0 h 2 m 6,0 h 3 m 11,0 h 2 m 2,0 h 1 m 8,0 h 2 m 4,0 h 2 m 7,0 h 1 m 2,0 h 1 M 4,54 h 2 m 1,0 h 3 m 32,0 h 1 m 1,0 h 1 m 1,0 h 2 m 5,0 h 3 m 1,0 h 1 m 5,0 h 3 m 1,0 h 3 m 1,0 h 1 m 2,0 h 2 m 2,0 h 1 m 4,0 h 2 m -48,1 h 1 m 1,0 h 1 m 1,0 h 1 m 2,0 h 2 m 5,0 h 1 m 1,0 h 2 m 4,0 h 5 m 4,0 h 1 m 6,0 h 1 M 0,56 h 1 m 5,0 h 3 m 23,0 h 1 m 8,0 h 1 m 1,0 h 2 m 3,0 h 2 m 1,0 h 1 m 8,0 h 3 m 1,0 h 2 m 1,0 h 1 m 1,0 h 4 m 1,0 h 1 m 2,0 h 3 m 1,0 h 6 M 3,57 h 2 m 1,0 h 1 m 1,0 h 1 m 23,0 h 1 m 3,0 h 4 m 1,0 h 1 m 2,0 h 2 m 2,0 h 2 m 1,0 h 2 m 7,0 h 1 m 2,0 h 1 m 1,0 h 2 m 1,0 h 4 m 5,0 h 2 M 2,58 h 1 m 1,0 h 1 m 2,0 h 1 m 23,0 h 1 m 2,0 h 1 m 1,0 h 2 m 1,0 h 1 m 3,0 h 3 m 3,0 h 1 m 2,0 h 1 m 8,0 h 1 m 1,0 h 4 m 1,0 h 1 m 5,0 h 1 m 2,0 h 1 m 3,0 h 1 m 3,0 h 2"
           id="path15-2" /><path
           stroke="#144d75"
           d="m 23,44 h 1 m -3,2 h 1 m -1,1 h 1"
           id="path16-8" /><path
           stroke="#0b0f11"
           d="m 72,51 h 1 m 3,1 h 1 m 2,2 h 1 m 2,0 h 1 m -10,1 h 1 m 3,0 h 1 m 2,0 h 1 m -5,1 h 1 m 3,0 h 1 m -6,1 h 1 m 4,0 h 2"
           id="path17-9" /><path
           stroke="#313931"
           d="m 73,51 h 2 m 6,0 h 2 m -10,1 h 1 m 6,0 h 1 m -8,1 h 1 m 3,0 h 1 m 2,0 h 1 m -8,1 h 1 m 3,0 h 1 m 2,0 h 2 m -9,2 h 1 m -2,1 h 3 m 4,0 h 1"
           id="path18-7" /><path
           stroke="#4a4b74"
           d="m 75,51 h 1"
           id="path19-3" /><path
           stroke="#191a54"
           d="m 43,55 h 1"
           id="path20-6" /></g></g><path
       style="fill:#000000;stroke:#000000;stroke-width:0.729;stroke-dasharray:none;stroke-opacity:1;marker-end:url(#ConcaveTriangle);fill-opacity:1"
       d="m 66.648273,27.403954 h 7.923968"
       id="path22" /></g></svg>
